<mxfile modified="2024-02-06T12:50:05.162Z" host="app.diagrams.net" agent="Mozilla/5.0 (Windows NT 10.0; Win64; x64) AppleWebKit/537.36 (KHTML, like Gecko) Chrome/121.0.0.0 Safari/537.36" etag="R78ZpPD9J7CQpk_TtKX_" version="23.1.1" type="github">
  <diagram id="Ht1M8jgEwFfnCIfOTk4-" name="Page-1">
    <mxGraphModel dx="1434" dy="746" grid="1" gridSize="10" guides="1" tooltips="1" connect="1" arrows="1" fold="1" page="1" pageScale="1" pageWidth="1169" pageHeight="827" math="0" shadow="0">
      <root>
        <mxCell id="0" />
        <mxCell id="1" parent="0" />
        <mxCell id="-QjtrjUzRDEMRZ5MF8oH-1" value="" style="outlineConnect=0;fontColor=#232F3E;gradientColor=none;fillColor=#277116;strokeColor=none;dashed=0;verticalLabelPosition=bottom;verticalAlign=top;align=center;html=1;fontSize=12;fontStyle=0;aspect=fixed;pointerEvents=1;shape=mxgraph.aws4.door_lock;" parent="1" vertex="1">
          <mxGeometry x="185.5" y="730" width="78" height="78" as="geometry" />
        </mxCell>
        <mxCell id="-QjtrjUzRDEMRZ5MF8oH-9" value="1" style="rounded=1;whiteSpace=wrap;html=1;fillColor=#007CBD;strokeColor=none;fontColor=#FFFFFF;fontStyle=1;fontSize=22;" parent="1" vertex="1">
          <mxGeometry x="73.5" y="211.5" width="40" height="38" as="geometry" />
        </mxCell>
        <mxCell id="-QjtrjUzRDEMRZ5MF8oH-27" value="2" style="rounded=1;whiteSpace=wrap;html=1;fillColor=#007CBD;strokeColor=none;fontColor=#FFFFFF;fontStyle=1;fontSize=22;" parent="1" vertex="1">
          <mxGeometry x="483.5" y="164.5" width="40" height="38" as="geometry" />
        </mxCell>
        <mxCell id="-QjtrjUzRDEMRZ5MF8oH-28" value="3" style="rounded=1;whiteSpace=wrap;html=1;fillColor=#007CBD;strokeColor=none;fontColor=#FFFFFF;fontStyle=1;fontSize=22;" parent="1" vertex="1">
          <mxGeometry x="730" y="223" width="40" height="38" as="geometry" />
        </mxCell>
        <mxCell id="-QjtrjUzRDEMRZ5MF8oH-29" value="4" style="rounded=1;whiteSpace=wrap;html=1;fillColor=#007CBD;strokeColor=none;fontColor=#FFFFFF;fontStyle=1;fontSize=22;" parent="1" vertex="1">
          <mxGeometry x="730" y="421" width="40" height="38" as="geometry" />
        </mxCell>
        <mxCell id="-QjtrjUzRDEMRZ5MF8oH-30" value="5" style="rounded=1;whiteSpace=wrap;html=1;fillColor=#007CBD;strokeColor=none;fontColor=#FFFFFF;fontStyle=1;fontSize=22;" parent="1" vertex="1">
          <mxGeometry x="730" y="555.5" width="40" height="38" as="geometry" />
        </mxCell>
        <mxCell id="-QjtrjUzRDEMRZ5MF8oH-31" value="6" style="rounded=1;whiteSpace=wrap;html=1;fillColor=#007CBD;strokeColor=none;fontColor=#FFFFFF;fontStyle=1;fontSize=22;" parent="1" vertex="1">
          <mxGeometry x="213.5" y="631" width="40" height="38" as="geometry" />
        </mxCell>
        <mxCell id="-QjtrjUzRDEMRZ5MF8oH-32" value="7" style="rounded=1;whiteSpace=wrap;html=1;fillColor=#007CBD;strokeColor=none;fontColor=#FFFFFF;fontStyle=1;fontSize=22;" parent="1" vertex="1">
          <mxGeometry x="98.5" y="921" width="40" height="38" as="geometry" />
        </mxCell>
        <mxCell id="-QjtrjUzRDEMRZ5MF8oH-33" value="8" style="rounded=1;whiteSpace=wrap;html=1;fillColor=#007CBD;strokeColor=none;fontColor=#FFFFFF;fontStyle=1;fontSize=22;" parent="1" vertex="1">
          <mxGeometry x="509" y="923" width="40" height="38" as="geometry" />
        </mxCell>
        <mxCell id="-QjtrjUzRDEMRZ5MF8oH-47" value="SSOLID SELF STORAGE DEV" style="text;html=1;resizable=0;points=[];autosize=1;align=left;verticalAlign=top;spacingTop=-4;fontSize=30;fontStyle=1" parent="1" vertex="1">
          <mxGeometry x="56.5" y="64.5" width="450" height="40" as="geometry" />
        </mxCell>
        <mxCell id="-QjtrjUzRDEMRZ5MF8oH-48" value="HUB INTEGRATION SELF STORAGE" style="text;html=1;resizable=0;points=[];autosize=1;align=left;verticalAlign=top;spacingTop=-4;fontSize=16;" parent="1" vertex="1">
          <mxGeometry x="56.5" y="114.5" width="300" height="30" as="geometry" />
        </mxCell>
        <mxCell id="-QjtrjUzRDEMRZ5MF8oH-49" value="MAIN" style="text;html=1;resizable=0;points=[];autosize=1;align=left;verticalAlign=top;spacingTop=-4;fontSize=16;fontStyle=1" parent="1" vertex="1">
          <mxGeometry x="84.5" y="164.5" width="60" height="30" as="geometry" />
        </mxCell>
        <mxCell id="SCVMTBWpLvtzJIhz15lM-1" value="" style="line;strokeWidth=2;html=1;fontSize=14;" parent="1" vertex="1">
          <mxGeometry x="52.5" y="139.5" width="1060" height="10" as="geometry" />
        </mxCell>
        <mxCell id="SCVMTBWpLvtzJIhz15lM-2" value="&lt;span&gt;ONLINE MARKET SALES&lt;/span&gt;" style="text;html=1;resizable=0;points=[];autosize=1;align=left;verticalAlign=top;spacingTop=-4;fontSize=14;fontStyle=1" parent="1" vertex="1">
          <mxGeometry x="442.5" y="216.5" width="190" height="20" as="geometry" />
        </mxCell>
        <mxCell id="SCVMTBWpLvtzJIhz15lM-3" value="" style="edgeStyle=orthogonalEdgeStyle;html=1;endArrow=open;elbow=vertical;startArrow=none;endFill=0;strokeColor=#545B64;rounded=0;fontSize=14;" parent="1" edge="1">
          <mxGeometry width="100" relative="1" as="geometry">
            <mxPoint x="354.5" y="394.5" as="sourcePoint" />
            <mxPoint x="404.5" y="394.5" as="targetPoint" />
          </mxGeometry>
        </mxCell>
        <mxCell id="SCVMTBWpLvtzJIhz15lM-5" value="" style="shape=curlyBracket;whiteSpace=wrap;html=1;rounded=1;fontSize=14;" parent="1" vertex="1">
          <mxGeometry x="415.5" y="248.5" width="20" height="290" as="geometry" />
        </mxCell>
        <mxCell id="SCVMTBWpLvtzJIhz15lM-21" value="SECURITY | ACCESS CONTROL" style="text;html=1;resizable=0;points=[];autosize=1;align=left;verticalAlign=top;spacingTop=-4;fontSize=16;fontStyle=1" parent="1" vertex="1">
          <mxGeometry x="66.5" y="576.5" width="270" height="30" as="geometry" />
        </mxCell>
        <mxCell id="SCVMTBWpLvtzJIhz15lM-23" value="" style="shape=curlyBracket;whiteSpace=wrap;html=1;rounded=1;fontSize=14;direction=north;" parent="1" vertex="1">
          <mxGeometry x="98.5" y="535.5" width="290" height="20" as="geometry" />
        </mxCell>
        <mxCell id="SCVMTBWpLvtzJIhz15lM-30" value="Build" style="outlineConnect=0;gradientColor=none;fontColor=#545B64;strokeColor=none;fillColor=#879196;dashed=0;verticalLabelPosition=bottom;verticalAlign=top;align=center;html=1;fontSize=12;fontStyle=0;aspect=fixed;shape=mxgraph.aws4.illustration_devices;pointerEvents=1" parent="1" vertex="1">
          <mxGeometry x="805.5" y="300.5" width="52" height="38" as="geometry" />
        </mxCell>
        <mxCell id="7OVz4w7n9kzEPWy-4BBC-3" value="" style="rounded=0;whiteSpace=wrap;html=1;fillColor=#EAEDED;fontSize=22;fontColor=#FFFFFF;strokeColor=none;labelBackgroundColor=none;" parent="1" vertex="1">
          <mxGeometry x="1151" y="51" width="539" height="1220" as="geometry" />
        </mxCell>
        <mxCell id="7OVz4w7n9kzEPWy-4BBC-4" value="1" style="rounded=1;whiteSpace=wrap;html=1;fillColor=#007CBD;strokeColor=none;fontColor=#FFFFFF;fontStyle=1;fontSize=22;labelBackgroundColor=none;" parent="1" vertex="1">
          <mxGeometry x="1169" y="63" width="40" height="38" as="geometry" />
        </mxCell>
        <mxCell id="7OVz4w7n9kzEPWy-4BBC-5" value="2" style="rounded=1;whiteSpace=wrap;html=1;fillColor=#007CBD;strokeColor=none;fontColor=#FFFFFF;fontStyle=1;fontSize=22;labelBackgroundColor=none;" parent="1" vertex="1">
          <mxGeometry x="1167.5" y="185" width="40" height="38" as="geometry" />
        </mxCell>
        <mxCell id="7OVz4w7n9kzEPWy-4BBC-6" value="3" style="rounded=1;whiteSpace=wrap;html=1;fillColor=#007CBD;strokeColor=none;fontColor=#FFFFFF;fontStyle=1;fontSize=22;labelBackgroundColor=none;" parent="1" vertex="1">
          <mxGeometry x="1167.5" y="336" width="40" height="38" as="geometry" />
        </mxCell>
        <mxCell id="7OVz4w7n9kzEPWy-4BBC-7" value="4" style="rounded=1;whiteSpace=wrap;html=1;fillColor=#007CBD;strokeColor=none;fontColor=#FFFFFF;fontStyle=1;fontSize=22;labelBackgroundColor=none;" parent="1" vertex="1">
          <mxGeometry x="1167.5" y="479" width="40" height="38" as="geometry" />
        </mxCell>
        <mxCell id="7OVz4w7n9kzEPWy-4BBC-8" value="5" style="rounded=1;whiteSpace=wrap;html=1;fillColor=#007CBD;strokeColor=none;fontColor=#FFFFFF;fontStyle=1;fontSize=22;labelBackgroundColor=none;" parent="1" vertex="1">
          <mxGeometry x="1169" y="626" width="40" height="38" as="geometry" />
        </mxCell>
        <mxCell id="7OVz4w7n9kzEPWy-4BBC-9" value="6" style="rounded=1;whiteSpace=wrap;html=1;fillColor=#007CBD;strokeColor=none;fontColor=#FFFFFF;fontStyle=1;fontSize=22;labelBackgroundColor=none;" parent="1" vertex="1">
          <mxGeometry x="1170" y="784" width="40" height="38" as="geometry" />
        </mxCell>
        <mxCell id="7OVz4w7n9kzEPWy-4BBC-10" value="7" style="rounded=1;whiteSpace=wrap;html=1;fillColor=#007CBD;strokeColor=none;fontColor=#FFFFFF;fontStyle=1;fontSize=22;labelBackgroundColor=none;" parent="1" vertex="1">
          <mxGeometry x="1169.5" y="947" width="40" height="38" as="geometry" />
        </mxCell>
        <mxCell id="7OVz4w7n9kzEPWy-4BBC-11" value="8" style="rounded=1;whiteSpace=wrap;html=1;fillColor=#007CBD;strokeColor=none;fontColor=#FFFFFF;fontStyle=1;fontSize=22;labelBackgroundColor=none;" parent="1" vertex="1">
          <mxGeometry x="1170" y="1105" width="40" height="38" as="geometry" />
        </mxCell>
        <mxCell id="7OVz4w7n9kzEPWy-4BBC-13" value="&lt;span&gt;CRM&lt;br&gt;&lt;/span&gt;ERP&lt;br&gt;SOTARGE ROOM MANAGEMENT&lt;br&gt;&lt;div&gt;BILLING&lt;/div&gt;&lt;div&gt;ACCESS CONTROL AND SECURITY&lt;/div&gt;" style="text;html=1;align=left;verticalAlign=top;spacingTop=-4;fontSize=14;labelBackgroundColor=none;whiteSpace=wrap;" parent="1" vertex="1">
          <mxGeometry x="1220.5" y="62.5" width="449" height="118" as="geometry" />
        </mxCell>
        <mxCell id="7OVz4w7n9kzEPWy-4BBC-14" value="&lt;span&gt;Lorem ipsum dolor sit amet, consectetur adipiscing elit, sed do eiusmod tempor incididunt ut labore et dolore magna aliqua. Ut enim ad minim veniam, quis nostrud exercitation ullamco laboris nisi ut aliquip ex ea commodo consequat. Duis aute irure dolor in reprehenderit in voluptate velit esse cillum dolore eu fugiat nulla pariatur. Excepteur sint occaecat cupidatat non proident, sunt in culpa qui officia deserunt mollit anim id est laborum.&lt;/span&gt;&lt;br&gt;" style="text;html=1;align=left;verticalAlign=top;spacingTop=-4;fontSize=14;labelBackgroundColor=none;whiteSpace=wrap;" parent="1" vertex="1">
          <mxGeometry x="1219.5" y="185.5" width="450" height="115" as="geometry" />
        </mxCell>
        <mxCell id="7OVz4w7n9kzEPWy-4BBC-15" value="&lt;span&gt;Lorem ipsum dolor sit amet, consectetur adipiscing elit, sed do eiusmod tempor incididunt ut labore et dolore magna aliqua. Ut enim ad minim veniam, quis nostrud exercitation ullamco laboris nisi ut aliquip ex ea commodo consequat. Duis aute irure dolor in reprehenderit in voluptate velit esse cillum dolore eu fugiat nulla pariatur. Excepteur sint occaecat cupidatat non proident, sunt in culpa qui officia deserunt mollit anim id est laborum.&lt;/span&gt;&lt;br&gt;" style="text;html=1;align=left;verticalAlign=top;spacingTop=-4;fontSize=14;labelBackgroundColor=none;whiteSpace=wrap;" parent="1" vertex="1">
          <mxGeometry x="1219.5" y="334.5" width="450" height="117" as="geometry" />
        </mxCell>
        <mxCell id="7OVz4w7n9kzEPWy-4BBC-16" value="&lt;span&gt;Lorem ipsum dolor sit amet, consectetur adipiscing elit, sed do eiusmod tempor incididunt ut labore et dolore magna aliqua. Ut enim ad minim veniam, quis nostrud exercitation ullamco laboris nisi ut aliquip ex ea commodo consequat. Duis aute irure dolor in reprehenderit in voluptate velit esse cillum dolore eu fugiat nulla pariatur. Excepteur sint occaecat cupidatat non proident, sunt in culpa qui officia deserunt mollit anim id est laborum.&lt;/span&gt;&lt;br&gt;" style="text;html=1;align=left;verticalAlign=top;spacingTop=-4;fontSize=14;labelBackgroundColor=none;whiteSpace=wrap;" parent="1" vertex="1">
          <mxGeometry x="1219.5" y="479.5" width="450" height="121" as="geometry" />
        </mxCell>
        <mxCell id="7OVz4w7n9kzEPWy-4BBC-17" value="&lt;span&gt;Lorem ipsum dolor sit amet, consectetur adipiscing elit, sed do eiusmod tempor incididunt ut labore et dolore magna aliqua. Ut enim ad minim veniam, quis nostrud exercitation ullamco laboris nisi ut aliquip ex ea commodo consequat. Duis aute irure dolor in reprehenderit in voluptate velit esse cillum dolore eu fugiat nulla pariatur. Excepteur sint occaecat cupidatat non proident, sunt in culpa qui officia deserunt mollit anim id est laborum.&lt;/span&gt;&lt;br&gt;" style="text;html=1;align=left;verticalAlign=top;spacingTop=-4;fontSize=14;labelBackgroundColor=none;whiteSpace=wrap;" parent="1" vertex="1">
          <mxGeometry x="1220.5" y="626.5" width="449" height="114" as="geometry" />
        </mxCell>
        <mxCell id="7OVz4w7n9kzEPWy-4BBC-18" value="&lt;span&gt;Lorem ipsum dolor sit amet, consectetur adipiscing elit, sed do eiusmod tempor incididunt ut labore et dolore magna aliqua. Ut enim ad minim veniam, quis nostrud exercitation ullamco laboris nisi ut aliquip ex ea commodo consequat. Duis aute irure dolor in reprehenderit in voluptate velit esse cillum dolore eu fugiat nulla pariatur. Excepteur sint occaecat cupidatat non proident, sunt in culpa qui officia deserunt mollit anim id est laborum.&lt;/span&gt;&lt;br&gt;" style="text;html=1;align=left;verticalAlign=top;spacingTop=-4;fontSize=14;labelBackgroundColor=none;whiteSpace=wrap;" parent="1" vertex="1">
          <mxGeometry x="1220.5" y="785.5" width="450" height="118" as="geometry" />
        </mxCell>
        <mxCell id="7OVz4w7n9kzEPWy-4BBC-19" value="&lt;span&gt;Lorem ipsum dolor sit amet, consectetur adipiscing elit, sed do eiusmod tempor incididunt ut labore et dolore magna aliqua. Ut enim ad minim veniam, quis nostrud exercitation ullamco laboris nisi ut aliquip ex ea commodo consequat. Duis aute irure dolor in reprehenderit in voluptate velit esse cillum dolore eu fugiat nulla pariatur. Excepteur sint occaecat cupidatat non proident, sunt in culpa qui officia deserunt mollit anim id est laborum.&lt;/span&gt;&lt;br&gt;" style="text;html=1;align=left;verticalAlign=top;spacingTop=-4;fontSize=14;labelBackgroundColor=none;whiteSpace=wrap;" parent="1" vertex="1">
          <mxGeometry x="1220.5" y="947.5" width="449" height="113" as="geometry" />
        </mxCell>
        <mxCell id="7OVz4w7n9kzEPWy-4BBC-20" value="&lt;span&gt;Lorem ipsum dolor sit amet, consectetur adipiscing elit, sed do eiusmod tempor incididunt ut labore et dolore magna aliqua. Ut enim ad minim veniam, quis nostrud exercitation ullamco laboris nisi ut aliquip ex ea commodo consequat. Duis aute irure dolor in reprehenderit in voluptate velit esse cillum dolore eu fugiat nulla pariatur. Excepteur sint occaecat cupidatat non proident, sunt in culpa qui officia deserunt mollit anim id est laborum.&lt;/span&gt;&lt;br&gt;" style="text;html=1;align=left;verticalAlign=top;spacingTop=-4;fontSize=14;labelBackgroundColor=none;whiteSpace=wrap;" parent="1" vertex="1">
          <mxGeometry x="1220.5" y="1106.5" width="449" height="124" as="geometry" />
        </mxCell>
        <mxCell id="n5wzkKO4SlnLm2nGRkyD-1" value="" style="sketch=0;points=[[0,0,0],[0.25,0,0],[0.5,0,0],[0.75,0,0],[1,0,0],[0,1,0],[0.25,1,0],[0.5,1,0],[0.75,1,0],[1,1,0],[0,0.25,0],[0,0.5,0],[0,0.75,0],[1,0.25,0],[1,0.5,0],[1,0.75,0]];outlineConnect=0;fontColor=#232F3E;fillColor=#ED7100;strokeColor=#ffffff;dashed=0;verticalLabelPosition=bottom;verticalAlign=top;align=center;html=1;fontSize=12;fontStyle=0;aspect=fixed;shape=mxgraph.aws4.resourceIcon;resIcon=mxgraph.aws4.compute;" parent="1" vertex="1">
          <mxGeometry x="74.5" y="282.5" width="78" height="78" as="geometry" />
        </mxCell>
        <mxCell id="n5wzkKO4SlnLm2nGRkyD-7" value="" style="sketch=0;points=[[0,0,0],[0.25,0,0],[0.5,0,0],[0.75,0,0],[1,0,0],[0,1,0],[0.25,1,0],[0.5,1,0],[0.75,1,0],[1,1,0],[0,0.25,0],[0,0.5,0],[0,0.75,0],[1,0.25,0],[1,0.5,0],[1,0.75,0]];outlineConnect=0;fontColor=#232F3E;fillColor=#E7157B;strokeColor=#ffffff;dashed=0;verticalLabelPosition=bottom;verticalAlign=top;align=center;html=1;fontSize=12;fontStyle=0;aspect=fixed;shape=mxgraph.aws4.resourceIcon;resIcon=mxgraph.aws4.application_integration;" parent="1" vertex="1">
          <mxGeometry x="463" y="363" width="78" height="78" as="geometry" />
        </mxCell>
        <mxCell id="n5wzkKO4SlnLm2nGRkyD-8" value="&lt;h1&gt;Connector&lt;/h1&gt;&lt;div&gt;&lt;div&gt;&lt;ul&gt;&lt;li&gt;Check the availability of storage rooms&lt;/li&gt;&lt;li&gt;Online contract signing&lt;/li&gt;&lt;/ul&gt;&lt;/div&gt;&lt;/div&gt;" style="text;html=1;strokeColor=none;fillColor=none;spacing=5;spacingTop=-20;whiteSpace=wrap;overflow=hidden;rounded=0;" parent="1" vertex="1">
          <mxGeometry x="435.5" y="248.5" width="244.5" height="120" as="geometry" />
        </mxCell>
        <mxCell id="n5wzkKO4SlnLm2nGRkyD-9" value="" style="shape=image;verticalLabelPosition=bottom;labelBackgroundColor=default;verticalAlign=top;aspect=fixed;imageAspect=0;image=data:image/png,iVBORw0KGgoAAAANSUhEUgAAAOEAAADhCAMAAAAJbSJIAAABaFBMVEX///8aDTI8LYY+MIcXCTBDMokAACHy8vMbAzoXCDBVPpJYQZRjSprAvsMTAC1RPJAAACQMACpfRphKNo0UAC5wVKHz8vvu6/QAABaHfJ6oo7NsUJ/5+Px3W6bc2uMdDjYAACbt6f+AccgtIUSGf5MKACg1JYBmY3DSztoAAB20sbkAAAC2rMuFgoylm7lRRWhXT2loXqPh2/8mD3w7MFCWitQ/N0/i2/W1r8AVADIAABPEv86YkKmCeJOkmM1pX3s2LEolGT2LdL9bUW5RTV2agMiZjrx5dYIjC3lgVnWhmq/e3uCRjJs3KlDZ0OpuY4NiXHB4cIpIQ1XJv9ivoe5tXbo8Ko7c0v9MPJwyGnyjlem9tO6llNh3a7pjTKy5sNdRRZKvptFMPWeHfrd3aI2ViatTRGzPz9Fxan8wHU9sYIRAL1rJwfCEd5ymjdWjj8egnqSEa698cqyHZrtmV5knFEccAEAsJjwFCLciAAAZAElEQVR4nO2dj1fbRrbHbVDsCMLgAWETI2yzssAmgL2tamwEwV7YejEG7NCmTZO227RsnLTppm9fX//9J9szo7mjkSwTetrs0bdNzgmMR/PR/Lp3flzHYpEiRYoUKVKkSJEiRYoUKVKkSJEiRYoUKVKkSJE+YKX3P5pa6T+60GGlf/TZ50//8Y+Pw+jZ+O+RPv746TdfffGnx9Qzn335j2ebM8GadXWP18zmsy8/2df/aIgA6ZmvPn42gS4A0NHyvc2nf7n80zJmnofh4wFFwuWhZp6+2P+jUeTKfR2GL6gKl4k2v7n8o2Ek0i/nJ3W/yW2U6t6zb/90LVX/9p/vC7jM69njP9uoGhYwLOHy08d/rlq8vmtAR9/dXfH07CTV7ctMUA65v9494PLS9Z0RJl+3jGBZ1kmvvZs998lg48X0gLOTAJeXv964M8L7SA2UomoI44ZxurUjzeDbe+EA/atQwre4uPjpKPdSEage0D9zXZC0Qxte8r4SDyMV4eZp3Zvvxte/Qxt1AJfXfhrl38N5Tg2/luSo2+BTJrbdOgxHOITErZ6n7VyHm+mnAhwSLi7fjPNvIq4I5lnSD3DB4BOm+mzsmIJwyGgJI8DGXyRVuLn5bHMox2nYDCEn/cw9EXBxef2L0ROONb4Eq34jUOaowCVT8qwKpyOMx3ELttTSx16+e59/Mq3+ssjV5eJYy3ujJ6SbPKKCfCpxmweMp7puh52SMI4veMT0Y08jXXxxm1FQf74iAC4u/32cUYdvffHEW+nncyeYL2Sl5P5qWsK4ecJ9OvO52Ei/vq3dnP4EAs4trpGsKnzh46uywUbvlLkkSr7L/W5qwnj5yDUAckIVbn59e98n/eIeRzg3N7dMpqfLFP94/FLy2dIFX9HoOPdehErebac27Iab//z21oDO6/rlHleFDuF3pDNdJfjnH3gHm+QNX4VqE4wV0xNyI7H+HNbh5vfvZTFfA8C5ZdqjN/IqX0OGx/OwQTvWBiDBLQiVhk0+nP4KEi4/fx/A2P7XXBudm1/8Ox2zsnwVxdGh8LnkmckDNkvwt5Cw0dDIf43RnwZKJbD4DhKH5CWl4Wy4ufbFexFuvLjHAc4v/o126iQYbFQDIsAXoOSLAj8gVI8WtgVlD08aoBEMB+OcnPCvARNF8tKuDx2Vkq9V4sw99xigQzjHCGN2ii+lNoA5A2tGawqeECBUVIl1nc7VQSsYNtNX0xLa3faZZbRahnXW7vrZz4SQAPKEepEfbNTftvmPgd/FsWg8TyZ0dD4AplO8vDAdYbZtIRNrqqIoCJvI2upMIpyHhLHcazDYVLl6uizw9Ys8kwkk1OSEseQWqMVEVp+C0B40MbBL1EJry5YkHBPOyQhj2wd8I+Kn9JegDz3yGASh6jAWqzf5d5giQ00owqyl8Z8dM5pW15tyRMgAIWEO9BRUY29oB4yzqR88uYarw1jylK+FAjFrQhCmuwi2cCIt3/f0xiGhCwgJYwtgSMdF8mm9Bc1WbxcPWYexLUD4Nixh+jDhqUDyLNODmH68vOgCCoSZh2CwMciAcgQAVyXlD0vY5gsamlDvrMr5hg9L7HoJ53wJBduzMLY9Lw2+XPhHSclDtlJImDpKhiPkm5aiIUca9wMk9EVCOC8njGXBaFd4N/xZFbZRmWNzq1aa6IQbS3PuOKegVu3UUc1A7F0BN44RzvsR5s48PuAOqMJUX2ZNhKxDvcfnXiYz7gRC/ZC1UZTfOhw1q1ynZ7ChJ7ELigQJl+YFwtg24Cl3k8lTMMAa0nWqkHV4bYFOEM6myTGfAF+4DTLtTB/kx2prwUM470+Y6fOFUPJ2t8WPr4WO1FYKV4d6v8G/rHB2qb5HpypsAVPKZq8r0eUrcUjoAnoJY3YNLLwNwD/xiXypMVQd6tmmrBtOIEz+SD6kNARb0aaVi0BPdAg5QAlhrJgHkyKo0oaPuRumDjPZGvBeLmixgglztAoTokMXY8sqmG+mHOGSnDD3RHBzXKXaPk6L4D15CZOl7bYB8k2xphVMuJegb8S7s0OfmuD7jku45EMYyxo+BoRmLXgSywiV411R7RPDBLkWTtg6TyCh/oYMdIkbb/O5IatL5hVHLxAuSQjTVakNCFdIgwjjuCDKxPCtYctmeQUSsm6YkvgR+8RVYIMWIFzyJRSMGLdUJyVvWinhRJkXXIcOJvyV5CzbTtHJTIksCeFSAGGsL6tEJS/3OG9BmOBqcBIhyVn5VTaKE+tNfe1L+EBOmGxIKjE18N/EnYoQl6/AWBKO8L6MkPRD9cJLSAB9CGN7ZU+51AvJvt/UhApKPPqXYNkGE16Ql00tIPDJR+PfoZcewqUJhLH7nko02/6AU9Rh5cazEhs8lv6LzDHlHe8wRz1zfMZV8IhwaSLh5YFQMlQL2iwJSagYh+cxr1MeSEhnBFzxzsVsnH0IZotFDtCXMHZVgGUTV0hvRRhXUuWDN+JaZ/CMb9MOU/ZMxue0GhJ1YcZ3Af0Jkw1QZq0aeMBompHGLL+8hu5OsF1Ks0Y/iou0tArVFt9HnTrkAP0J9TfAxsr3gwCnnC0wHpyHnS1iyT5tTYkrgJjp0xIW+vwvGOGDsfwIS3A01Wo5ebrbEDqNtWqHnPGHW0I079UfuELk+nQpQ9HAKJ9+PBeGMP1SML8bg6AtL4FQRaLEF5CqhLTanLyv2N5m4uV2adRb9Fz9hOVpgq1MRvggmHDPM5Y2A6ZDkdCqCLpo4QRY7YmnqswEhISzM+I6je1u/CHz5PDd9va77pm7z8OWBCHhg2DCjHc+RL2Ac2mC93RTErWw3a0UAGNhQOewSYTJLrdBjVO40XD+cp9XaMOCQcK1B3+XEh6BjZhxsVv+ZmkYH1/PdSx+xcf1pgHhrJfQGVPAoABbfOpUMOfGhBTQh7CUlwwcuOrrWoRbp9HtKo8o3T+clRHGSmfeN05r8IlYqhHhgwmEJ0iWmVb0nRNDribaYK2Nenwc4aycMFaq+iCalsfUGhK6gHLCTlw69qMLPxc/9IrwgF9so9NYCMJY7jghK1Oq4p3EOMI1H8INPx/f7PsNNmFX9UElUpfPJZz1JYwlD5EplgcdPJRMYQ4hByglLKo+07dibnszlBD612EMbK+tCoSzAYSx2H7lIMWN8Kr56LU0YfrxPE+45iUs1aS9cPTSLB/LJjRhj28e5PRmSEKncb11V7MU9MbHGmOEa36EbXA8SgETY1m+5B26lcYGfHaJQ50nnJ1E6Ii4vPGCX2tyCdf8COFaYuEIdEpF5ml7CAPqEBAWHiY5wtkwhMxf8h30KOGaH2FmwDuGyHgFR3jzjXSwCV2HoJWabzjC2TCESUpY9j+rDQhXVjyEHeAXYqdVwlX+srR53G6kMX9wCWdDEZ7TjTbZmgYgXPMjLIEzpOZwYTpX4987smSVGLYOSyCv9yHcCyBc4gBFwmQXmI7jw8rQACh7Nkg8hP51CNtD6oaNNLPhCJnXmtjzta84whUvIex0eLxCmj4Bg01DYp6GrMMFOBGRDZUpCNmiTcq7ZMcTuoArK4Aw0+dnCmQRw7EEHFjzbBKhXx2+qvJGG1tbcgj5WwZBhHVKWHjo68s5hDwgINTroBE16Hma2BGYIle9vnAYwkz2iWANlplNw1+jCCJkR5foSZXJhKCVnsOj6q63lAEnidBrTy8XPOC99AbUfqle7BnCwoh64SW8F0xINxPhfpqccMVbh3qHryqlxQ0pe+DITsKzdiqsYtSqomrNPBaXDQrueZqwhDeUEJ9NIlyREJ63wMmgU25RU/+RHyLUvGgIiStRWBBCkq2eA3r68qtNDvDe7IOffAnf0jrAFV/CjZ8fAMKf2QtLgmFGOKp+/ogvG6oGE4YS207RP3sG7jLNfOpLSDeE46jiezvrErTR9RX3bkoJuNEChP4WtmBhzeY2hAfM8Np+Bi5rzfhft/gXI/zRjzD9fIkHXF/7js0r8DqFITwlCXxs9AROR7cgNM+YJ5b7GN5G25Tf2XF0vaqNlfCdD+1lrgrX19dXdmhvg1uG6Ej4oH4NBpsG/P30hFre9Q4yizPwvt3Mp3422c7Z8VBnh36Al9+ANuqILuQkAaBmeD6aOYHHa8Gdk6kJtTjnaaY/2RRuFD79/laxLfTMt0sC4MrPtDG+AasgZcmcbUOvA6zyT0uIWqASrp+JVyY3v3xxmZtW+z/9Z06swRV6KegSjJW4InlB8PYhHGunvX9odEAr2/h8xhMdYfPZ0y8lmhvrm/n5b5Zcjd2lufkHa7ATrq//Qtqa/hIc7kLS/d5X8GQhv8o/FSHC1W3YBtOPn3kvvXquvnJ3fdjhQ7DLtLa25qnCf5NXuQcMqoQ4zJDX0NF465M/fDIFIUpYXY93cvlgZsK1Xh6PHcyDgNSjWOOqcJ1cg8uAO6RIcoJspPMeWJXnVvlDEqo4Vai8s72DiP7d09lAQHBZKxiQb6OsCot5vhxl3300eLw2VWR2XbKQSE1QIpHAF2+62/LNj41fNsMCzgUCgk64/gvpbjaowoC73Emw0qgabErTH07SzWF2e+FVzjfrn5ZmbgcYVIXr5J5fGuwmKKbsqg2RXQFbK2wLMJaZpHQ6eILTH385O10nDAH4gjwzq5UTrh4d+l98i+nFFJe27LdAfBvp389MVYVLsmEUttG/0fGkvgcUeCQhswPS7gTGK5lOyf95emtA1gm5cXRlnbUwHSq4HFMlnlLfb0oBl8NPFPxM+J+AtviH6cXTmZATRVAnHLXQBz//0TByfbQ446nFW3XClfe7S/x76sU/lyUBPMLNhC7iizscH+5cGy/+d37ZG8EjbCdcW1n/5fGfNBwdU/L597+sLM15KpK4FXPcGe4l2ErX//O37//9051FTvo9lf7o+ePHn06r77776cMJ8Bkp0u+ijE0UFCzsg9bCBTlq2Qq0bD9gLayS07IH/7WEdFdgNSL8UBURfviKCD98RYQfviLCD18R4YcvD+HGxsaEvYrR4bBJvpa+ESLVKKeJKxhhnqf7ZwUJM9li/6rf7tb9Hpurd3f7V8dX/WI3W/J7atru7Lb7/eN+v73bsX2WmDJOTsVRVrvdrO2Led0Zpho+r+67Gr5f7xadx131nazqnlIBQrtnmENpVk+6G5kr9qwGNsdpjGpfsmvqFL0zqLTQOJGJWtZxW+Jc57o9Kz/OqYAbRmXQleaVbVdIKrPhF63vuli9aLCsLqqDDuxvPOFOk96MUAuG94603nnCH+RTMbKOvJ233muZ3MlWBWHc7AkHafRDJyeYKF/reV5EacvgslJNScDtWHJgIf50oYpx60mfv5vgEp5ft7hzAaghIurHLTHWJ8p7bjB1De9xPxW3qlk+kTcnBxI1hWt29ZqQlYKbImKy1vDcpFFQvsbFxWKE5Vcwrefm4pnkpKIiRqB6p0lvXylafOC+ixPPkc7xE5HBH7aoX3hvAZkCYjIuj8qjqb+xs0WMULWEDFEN5PZQftMOHqisG353k9RVFoPuxvdaInrkntmyK7LC4xogfO0bdgg9oi2VEcY97xW0U3g4iVOZi7EDT5wDmcfsffnlFI+n3nJZSd+DAo7m7fhG9VPcAO4Lvi80jvlIob/6Xhwru+10W3aLdSR2vj4W+6HgkyaOLbf3ZDV5Voi/gO/bYuIF9wYgIEQII/dDquH2xGsQQlQFx1fe0sx093LzcAjFmMUR5Du1+2F1nIj+G7Xcd5U7NrmshuWi/2y4URQu2UCrDL+lgjvTbJ5IRpphVrXe1qnlHvXDbmAULqgfahhWM2+yVMp9mlvuihRLwUa1t7XVO621RkVTVDfW5Tm9J4k0a5SoauXNUaI8N11ss8NMWr66NRj0avRlIfeO9CEd1Zy55nSU1cV45sAWN124hEq8bScdU2PADhjhLVp2nb14BZ06dkq9u+WG+2FhxEv0VIvWzg7P4OgZu9OuNsy45gbQiu0QQlQr1oeJko6Z1K4hpCD3KNMwMCh9n1Z3+FndPibn2bmWdUUItdOundGHWWXbWxcmUg1+anUJERlYMn3am1CFdp5r1is0chpHL7K6LtDxwb4Y/8g8dvOPlbrHCYM77HMzLpbS4s+82MVqqsfNO+zLANAF/WjuWBVbFrkVhGr8dwXU21ahyI/v7mzBwp2XaNhM1aDzNGsPXKyHLnvNNHLogjEmFM65bnT5mZUQckMPeRH8dM8u3idc65HeksU9WgRyydI8Arvjer0L5mhGWHjIfrZLDsy5BxnpV2nwMQLP6YysNEht2KR9e+5W8+aYtA7FRLRUILpze/xJjb0bWofVgPNgvNXmTrYsNLJGo1bSK6l8rMM0u3WUIEAlajTgo6y9n5G7HnskDbKKdXtf7lPoWVIq0BpIsZQWbVlntFRVx6XY8HM9ZB7wJR0xTGqH0AuIBa5B6OzC1gGZzNlIEzfz1tmg7bhF9Uvxwdd0LNVwq3I82O12srZ4NDB9SF5emTd7N0gzZe+dhW/D2sXJ8ehxtvc4h4xwg3bEgkiY4J2EErUoHpFTFBkWdmc4iTmukzOvnGy1O+DsctL1FoaJMM4blepWMcsXjR3dRqCs5CorpqXa4+Zux13DWsuq9DzOrYwwcxqK8JVIGHsnGm2jOb1VATHKDcE2V4aJNOOUGwApodLY6ex1yP+dnRrp5m1SiIwYQGeUVd46BefRpYRVfDtCW7TeaVXxMcrlxqTqzNqsrt3j9+AbxMjPzD41caXG+dBZO+ZaxJ0SujOIIK3FIf6f3Jp03DpaBJdwGI6fihkix/R5GR8jXkEVidV2J4TpQdnHYOZi/yVXfXwe/DopEkqTnbHn7TzyMfVTbxni3RLGNvpI84SXGj2Si9+YuUCaNIoH9cRCE8auE5o3cv+oTKzJ3zGhM2tVm61hfHIBAQRw1G9qzbjmYAqJFJwMQ8jHK93o/2bkh1kpMKvCD3Q6vtOxlDx0b3D6pNZs5YduD3vuOI460+Wh43lYRkvjfCxnZj0XCMVLn0MlYERW/fqo5zzO4eQ8sbjyK22m082HKSnhgfdUYaZUPyw6/swT9vUFhV2PjZO77hy2t7ZOa3maqLwHCbUtmYqeFT7dyao4cLKyGGOZvgapTVP1s2l4i9O1aVZ9z4UmS50qSWT6BlJNXhdZtxi7KZkimVgTfhn76Nz1/RJ7HkKJXYqC7NIka0oF/u6x+NAcmafxccDGiE0CrOM340w6CU+hfCQ+Tz+kkTVvRMKU61sUmW9BCa9kvgV9W8p97gF1j51PrEeOUO+IV3AyZHUAk7gI2yzE6QTATEd8b7nX45fFVrWC/EPF6x9i95bsLvMPORfHrl2IN8C8hNlyNQsLljnGgGiBdswUyKzkcUWuEoMF2PpfEdeS1Rjn4x+NPy/z8d01H0xszFyXTdtc7ed6GBVOwB6ETZq8yZaES/cVnO+947ZQkh3yyAL5qhjmpYAvibBPxOt5nbJiGkd1PvRkm5TL2w+Hy0X1nDMGDtgFf8wuK+rupX9c2c1ms91jd11+lTXMzCgKCi5UHAO/lEtmcnZ216IRhem3PehDa1Ix8ydFx206HyVq02VBWqwMCx+IK8Tr0O3dJha+2mQU+kM1jd5u9jqXTDqF7/bo4kqZlopfa8NWtVdtulMYt9Z25d7wQ46/08Ku4eWutcW2SUmR2Riuo/V6FQPT9s3mw3aCPM1xIqujtbYWW7hjxwfrrBTIKX+3093dqmma8yEecYNY3grGQw9smFXD9JQKrJeq/JzpdEN3fWWft3EVYD+4geVfcV8yIKyFujZNFnP+4TiRbGHSXS9VMWq1HMtAG3+EC/3cd1/7eH2W2w+R2DRe4VOuD4uRUd28MV33ccPLSkTt0kupg0XEReEHa97cK1VRm6bxCTI41gHrv/x6qVB0EGZ532+34YBGRkofmv5PVMniSroaAKiY7iKZz77F8I32xyPitaXJUwxVeOP1LZSWUD4M95480V/HSrBwJbmXPp7T6ImkcV3nPVEGXT3i53e7Ik+JGiR6y1HB/2Wp2B1eGWHChgVUW8Lt/rcpr5uiYC6WR+ahKfdknMo5oW9r30I+ey4qCXXHEC1Jo1ewwYq1YyAfRq3A2R3cHvAe/10WyBMKXL9piZ4fUs/AzG1XW5q3/I7zfsxN1Xu/eYPeOHxa/FCwwOyqJhAoOP6Es/LTV01Nsm2raQYf+W6hTL5l3Bmoj+j3dSjIbEqCg9nDjRa23TNcWTkUrel6r5bHvG/oZJV/IuR186SpgUQqQoZkWTfdtxqYJXNyaok5bQyeGAiM/ypuNAfgtS+0rLGGiyTZU2M06OatLWn0gsxhrzb06MZpqkXZDe9Scatq5Uki3DBqW0XvWu11sVc18ogkyhvVLfn5lsvBqUWSaa1KT/LWk51Br8ayQi2r2hZeVaZONAqHl+k4/tpWu+tr0uuOHzZK4lgt/vGC6t1RIidZseMT2F8vZUkiJ6usv9uRrHfb7cCcYunrzjhNcKncLJMT76mGSOIgJMPlFOZWbJhUIbOKFClSpEiRIkWKFClSpEiRIkWKFClSpEiRIkWKFClSpEiRIkWKFEmu/weXqH3+C73qvwAAAABJRU5ErkJggg==;" parent="1" vertex="1">
          <mxGeometry x="796.5" y="223" width="70" height="70" as="geometry" />
        </mxCell>
        <mxCell id="n5wzkKO4SlnLm2nGRkyD-10" value="&lt;h1&gt;Boxbosses&lt;/h1&gt;&lt;div&gt;&lt;ul&gt;&lt;li&gt;Marketplace for storge rooms.&lt;/li&gt;&lt;li&gt;Global rent storage room.&amp;nbsp;&lt;/li&gt;&lt;li&gt;Main online storage room rental operator.&lt;/li&gt;&lt;li&gt;List of all available storage rooms in more than 100 centers.&lt;/li&gt;&lt;li&gt;Online contract signing.&lt;/li&gt;&lt;li&gt;Online billing. Stripe.&lt;/li&gt;&lt;/ul&gt;&lt;/div&gt;" style="text;html=1;strokeColor=none;fillColor=none;spacing=5;spacingTop=-20;whiteSpace=wrap;overflow=hidden;rounded=0;" parent="1" vertex="1">
          <mxGeometry x="880" y="227.5" width="260" height="192.5" as="geometry" />
        </mxCell>
        <mxCell id="n5wzkKO4SlnLm2nGRkyD-11" value="" style="shape=image;verticalLabelPosition=bottom;labelBackgroundColor=default;verticalAlign=top;aspect=fixed;imageAspect=0;image=data:image/png,iVBORw0KGgoAAAANSUhEUgAAAOEAAADhCAMAAAAJbSJIAAAAkFBMVEX///8yNzwuMzglKzEXHyYaISgRGiIsMTcgJy0THCMoLjQjKS8QGSH6+voVHSUqMDXe399LT1Pp6erv7/BhZGfNzs9maWyvsLLQ0dK8vb51d3ra2tt8foGRk5XGx8g/REhYW1+Zm522t7ijpKaGiYtucXNFSU2Nj5E3PEGpqqxdYGNQU1cGExyBg4UAAAAAAA4PtXQWAAAPYklEQVR4nO1daXuqvBatQBABQRHnWds6nvf8/393CQmZ2EHbgtpzsz70qTaFDGuPmd7eDAwMDAwMDAwMDAwMDAwMDAwMDAwMDAwMDAwMDAwMDAz+OXST3nA13Y1P4910Newl3WdXqEYkq/1i4zuOg7wMAf6Bsk/+ZrFfJc+u3E/RnexHtouCuN0qox0HyLVH+8mvHc7eKUXIjoG2iYhthNJT79mV/Tp627UbsJGzfNtDyHHDyLO9KHQdhDzbt9hoBu56+6sa2R33Ozatv5U1yenPtuPhPBnQvw+S+XC8nfWdrMGsWKc//i107S1cz6LVRuiynOrVSTJdXjIm09Keu/gNAzlMXZ9UOAjXy+HtYekOl+swII303XT4gDr+BMN+RIQvI93pflOQnDJaE5GM+q/cxskmyseijeLtVy1dso1R3jlWtJk0UrufY/DhWoRq59W3HrA6u7ltsdyPwe3Sj8eWVM//ibrIlFQuxLG7rbFm9WC+9mj7fuaIJbSN3npeU81qwnuICWqFH5r2JavTcpb2j23b81vHS5rZR51PmnzQZ703V90vo7cO8n7/hFREMn3vBx0U2H67cGKsNvZxOvblANrKyWfOh2D9MtbxdMVVj9Gp9Jfu6r3letw9U2D5Xnh8X5Vt5glhmbau5Sc+BTMH19ZJS/pvNfOQf8PxzlqJvFlJ9w5S8tDZY5pQicEam2qrs1O+Tw4I3YorCvgIHVS67jp45O310+3GPHcqg75SweHIte9sHoEdqv5a0sfCbdlP1qmrK65eR1F7q74DhbzViKO+Qtb3Dv7++j33oSaMcQMtV2bo8BLpVEs1LKcvK+Nd7iRdx49skox9mPNIUuqDkfv18WNt7KQS3Xu5DIT7xzaLY4tZ5Mu6YOve1J6VaMv+2mCNH9d5kg+3xw20L+JXPeK7/QiKv3bBGqvzlFEcY4raZ/Gr7fV7AijDukpDdsZNDJ8gi7kWtVPhm+7m5wNI4F1E5qe4iY/XqPO8geIITrzvaxgVMRKVaj6K1wfbxQF+qS/K4CmsrX0Ykv68YHVjP9a7WWcCZ62FLw6dWhvY8v8uql7XOGY2toNCp36gOptnodb7eCqY2QG2i/YD3fATdvxdoQZpUGcD7XVJrfTc7HvnYcFUD2sZMZhIv+Zl3wD6A7xzh6Xg+qiQGEtFIDjb53obuARf+h48ThTzd/X551mtFPU/NK/tK/3aHObYLHS4g/xeq5JpBbp5gATzNHyEVcQcdbgQnuo1E4HeA905j+HpNnPNYu6sTeo19K1rxVROGmcOXeNhxgCrbcQs4aAuV5TCOle9G8uD27Rr84H7kdulTX2+aA67cohOmD86TVQTJtkQWp/s41YcQqsdx7YdBEIEFXuB7fttCwqqLKtUPOs8NWUn4zMr7DY7M7XJXhGyV0z+c3JEnRD5x/5mtDhsx2NuHtFid9oeZunms2U7odtxaHE3RHFefJkVv4hJAW9a+Xos9damyQYOI8lgJb0cSTKQ9ENKqWtLerE7KIoP5OIX6+4xfPvIuiNqcgoVW1335uTSilrI8L6VBzuB6tVymPWpK3sbdSMfwsXtYkUL73uq2ML2LT2yaHYQz+17hvBt1L6PchQXUR87NwrjQWxXmZQfAYcwN4ZwkEymPNLwlqt55RK9QTLcbaT0I9KMD3sKHkS3qRgDP7yjf/jyaCO8PE8YEttD2RfHT6j44hioxVt6c8fo0OvcJSnfQhcTJNX/feUAVo9QD0qU7WCPvQNLwZg9Amtqt5nVU+NMI6CqpJ42TGyPgNJd2KP1ofg3674j+y3rGa+Z9Ck2FXFVgT/ahL4DOZMjeHrxCg7i5D8moHFTBgMLADdXkO8x1EaKYJ/vYK8dlsR5yHiwtSvVwfeRP7jo38SFimhpal2A0l2N3LqQOu05zEwlnduewbeQRb6cHMsr5P/qaRpC1NPQFIxy5459KH7PxKWJSBgbw4CFTR6oEPQ0Bft8qgkuoSh3jlqo+P0UNGIS8WPZSGRNCaBCFXOHQGmNNs3csvKITxDX40kodnZtyMwQp8bMh+Ocd702hVg90sTPcdm6ZDbCZznvTGCqDPP30M0IaLNMpqexcROt0QdZraMpEOVixesVdn6ZqTRUt9HPWMJ9xlzeQsjG6ZMaHlC6q5Pbdkn37m3B3cDvR3WH+nux2w6YjKAk6GkKsvpD1yOR6jthNe0X+eCcUHVPfGeanRu1Y754EPIr9DQFZKuCpqVUxTlPBBSfLhb8vJ/AFsRwQHRgBClsvTaFWN296kq7SnI7dyaY0ceCaNfYujcSeDKe0Z4HbZyepiCrtTRVNFOeppVrcEco/hVgh55ZqUPRCqCgnqYgq6daH0FOgZDUDxPEJLoR5nwd+0BIMBRpYNDG6WoMuyFabao0YGvLneRUznB8B4tYeHzhYIOh9kFLUxuaGPzQrdD0pYk0omi4I5W5pnG9gX42bMylSNhsE5Q20tO05QPFtTSVfOtiqFlskzlV7U2dDcQqkikW7l+DNk6vTSFW60IoOWouXsmoi1kLddi3gevBotgxM2KgTTpoo0SQ1TNdj4hOy5I+k+ljXAenTr8tcQSfbcmbEAE2bq6nqQfUaaWjqZhtXdPEPxNlPKhOneaih1tY2OAF73XQxmkb2EIAq7XaVDC3vULymS6Y4xbWGSJKXSbEPBaUCdXTFAx5dDT1WUxPbYX4AIlUdWDlCZOv4lwRZOMqaHoFWK2jqeDVHNlWlMJiYR/Hq9PkYy+JORlHoYWgjdMvMgWttKaF3N7NI/Yly5qGN+cavwYcf0bFB7kiQOmllqbgXI2GptzkCwkulq+N7p74uQ9YObMQVqqQAwjDXLsABZxR1NCU0aMrzi8W/+TVnPjGaSjx4Ryg73TU8FQT08EtZHpaDCJZN9s1J6OkMZQ5GAHDoqOpRnIWoG/KFImYr2psDCU5lEM6qNY6barJHsE0LQJsKUpuF/9TtxxqdalmQhamqTbxAC79K7pDnN6wGtOlkj3sy9XvADYOpqm20yGaMmciFTjTnD2UfJpUpilk43pRC4B2zRpE08LgD8RHNefTSH6pYr9Azw2iKSUppB+AFhYDPhZVd3N+qS62yAF5bluAplRugEkJaNKqSDRJK+eaiy3k+FBRDHzai6MHGH0Sz83/AqwGJq2oXRhI+cbm4kMpxi9JDRRsr0s0pSQ9BNDUX2kMCzE8Sd3ZXIyvydMU7wVEvkxTStK4FQErmUs0LUyBrLgbzNOIubauar58YKtHvkFCAlkhMkFi4MdQoim1TYmslBvMtUn50ovKQEgiVJpSkuLBghZ0KC0sJp/2EhX4zEn9+VIp513K3EOmXKUppR3+VyhbrdC0qL7cT03mvKF5C6FvN+X/ULUpGedcS8UAqxWaUqdU4XqT8xbS3FNSljHgbXL3U5IS/wxybhTHjXypEKHJuSd5/lBtICgTcu1o95OgA2K1RP2iM9X3FIWbmD+U5oBLgggtb5EZFnGSwqyeiDSl2fG5rEmbnQOW5vHLnjJk40Sa0h6fxQrdBIhDbpGvlFmeZufxpbUY3dLkNGTjRE1PSMqyv9AACMQoBksxOM2uxZDX05TnxIClFiJNiblnSphHshzCpBUlizKN1fB6GnlNVJmmkHXiHhddfMMXsnUAVvMRo931R0PShtZEyevaSokYaM0kpylRnkLGxQc2EjKaFoOlyALzqRpa1yavTSzPTQBywV108scdlPjkYKSkEzgKURpfmyivL+2VFt1BNu6TEo9qUjH9AbG6oCldxa1kb8Ji1BpbXyqvEU7VZSJQMLOnUQjRpFLGBWI1NQ60PxSFzVVLY2uE5XXew5IkAotkEzrSJJkvZVyg5fYTyeNRSBo1v85bWav/qYZQEHGINqWDIu9VhDLW5C90Al+2SDzf1eBa/a60Iae0uwKycYSmlKTyCq/y8kOqv6hLpywI41s2zs3tt1A25PRLcXDZxpEQnWjSk5IaAHJu+WwANUlyiMZpecfWpO8DP5znDoZq1heycbnsjtivt1iNv6fyLC9z51LY6L4nsiEnET9JAJZ+Y5oSzZGoHQKxOnM4qcANJCHgoVJyY2vSDyHvP0xUmwjYOFyGxLv70vQLsIAooykdWkXxsm5teP+hsod0q7hV0PbIi0X7v6R7QVaz/MVGLM63JzS9h1TdB6zm04AFRKeAaNJydrHFN1BwLAPCXUnxCi5a4/uAlb3cc2WJL2Cmkg5JQUETGQCr539JDCopXn5EVPN7uSv348M2rk9ICk1GQawOSPeJKVnEle4D9uOrZypcFO+4bOP2+bjC897Apj0SQIiKN96wPz7iTIXSuRhKhFO2ceQwfc2kcJnVxFkRFa/yssbPxVDPNhkqJkPzX1D7KrSioHi51D/obJPS+TR7yZKDS7/1C4fBTXuS4nX5MD/qfJrSGUN/pGloeBevbo+CJpDlihdxm/m4M4ZK50SNRM0O59p1C90gz+1NULyeMMPxuHOiqs/6ghbJVuy8jCBWM8VrC5n7R571VT6vbcObCG7a0++eBVldKF7x4MnHntdWPnPvzIkKzStVnOcGeG6F4vWEznrwmXvAuYkjpm6Cso3TLlZvgUu3qOJFggw+/NxE4DDKP4XRADamw2sPCYBJMqJ4XVGpPP7sS+D80n1h+ssBeOWBZ2XPLaeDK1LhGeeXAmfQDh0yVCUbV0VSwHPDivcFzqCFzhEeXIgwWkpJ7eYtUlr13DJOo/MLnCNccRa04rnpN+ARhAqrA+sqzS4+7Sxo8Dzv/C4WJden3etLobB69fdlzvPWnMketpXtTZrTLwRID01f6Ex2+Fz9JI0i0cZpj4ZgkFktPezZ5+rr7kb43AifNKfQCNBnsJ9/N4LufoupQNPz7YPooU17GK9wv4X2jhKGAbjiWwYYj7zKHSX6e2YoxjdJKuWaOF7mnpm3iruCMPq3NKnlo+CjRNNXuivoreq+p8wjP4Y37ns6AHL2Yvc93byz63CxO/jeUXZSK76zK0DR77mz6+2Oe9eGY3bvmpXfu3Ya/qZ7197+D+7Oe/v37z98E+6w7KTfvMMy7eTte9U7LN/+/XtIMf71u2Qxhucf3Qd8fvX2Yfzrdzpj/Ov3cuf4x+9WJ+id0oyBtzzvOGNyevqFzSPoTvYj20VBDB1a1o4D5Nqj/eRXkRNCstovNr6DT7bOEOAfKPvkbxZ73Z3AvxLdpDdcTXfj03g3XQ17lQeZGxgYGBgYGBgYGBgYGBgYGBgYGBgYGBgYGBgYGBgYGBj8UvwPc336X5TsxLgAAAAASUVORK5CYII=;" parent="1" vertex="1">
          <mxGeometry x="810" y="419" width="71" height="71" as="geometry" />
        </mxCell>
        <mxCell id="n5wzkKO4SlnLm2nGRkyD-12" value="&lt;h1&gt;Wordpress&lt;/h1&gt;&lt;div&gt;&lt;ul&gt;&lt;li&gt;WP connector.&lt;/li&gt;&lt;li&gt;Direct rent&amp;nbsp;&lt;span style=&quot;background-color: initial;&quot;&gt;box from customer web&lt;/span&gt;&lt;/li&gt;&lt;/ul&gt;&lt;/div&gt;" style="text;html=1;strokeColor=none;fillColor=none;spacing=5;spacingTop=-20;whiteSpace=wrap;overflow=hidden;rounded=0;" parent="1" vertex="1">
          <mxGeometry x="882" y="421" width="238" height="120" as="geometry" />
        </mxCell>
        <mxCell id="n5wzkKO4SlnLm2nGRkyD-13" value="" style="sketch=0;points=[[0,0,0],[0.25,0,0],[0.5,0,0],[0.75,0,0],[1,0,0],[0,1,0],[0.25,1,0],[0.5,1,0],[0.75,1,0],[1,1,0],[0,0.25,0],[0,0.5,0],[0,0.75,0],[1,0.25,0],[1,0.5,0],[1,0.75,0]];outlineConnect=0;fontColor=#232F3E;fillColor=#8C4FFF;strokeColor=#ffffff;dashed=0;verticalLabelPosition=bottom;verticalAlign=top;align=center;html=1;fontSize=12;fontStyle=0;aspect=fixed;shape=mxgraph.aws4.resourceIcon;resIcon=mxgraph.aws4.serverless;" parent="1" vertex="1">
          <mxGeometry x="812" y="560" width="78" height="78" as="geometry" />
        </mxCell>
        <mxCell id="n5wzkKO4SlnLm2nGRkyD-14" value="&lt;h1&gt;Serverless&lt;/h1&gt;&lt;div&gt;&lt;ul&gt;&lt;li&gt;Api connection&lt;/li&gt;&lt;li&gt;JWT auth&lt;/li&gt;&lt;/ul&gt;&lt;/div&gt;" style="text;html=1;strokeColor=none;fillColor=none;spacing=5;spacingTop=-20;whiteSpace=wrap;overflow=hidden;rounded=0;" parent="1" vertex="1">
          <mxGeometry x="892" y="551" width="214.5" height="120" as="geometry" />
        </mxCell>
        <mxCell id="LPtJNR68yc8nHozL9RRt-2" value="&lt;h1&gt;Boxbosses Lock&lt;/h1&gt;&lt;div&gt;&lt;ul&gt;&lt;li&gt;Control Panel for center owners&lt;/li&gt;&lt;li&gt;Manage center devices&lt;/li&gt;&lt;li&gt;Ticket registration&lt;/li&gt;&lt;li&gt;Events and alerts&lt;/li&gt;&lt;li&gt;Users and roles&lt;/li&gt;&lt;li&gt;Time control&lt;/li&gt;&lt;/ul&gt;&lt;/div&gt;&lt;div&gt;&lt;br&gt;&lt;/div&gt;" style="text;html=1;strokeColor=none;fillColor=none;spacing=5;spacingTop=-20;whiteSpace=wrap;overflow=hidden;rounded=0;" vertex="1" parent="1">
          <mxGeometry x="309" y="720" width="271" height="150" as="geometry" />
        </mxCell>
        <mxCell id="LPtJNR68yc8nHozL9RRt-7" value="" style="shape=image;verticalLabelPosition=bottom;labelBackgroundColor=default;verticalAlign=top;aspect=fixed;imageAspect=0;image=data:image/png,iVBORw0KGgoAAAANSUhEUgAAAS8AAAEpCAYAAADCh6TFAAAAAXNSR0IArs4c6QAAAARnQU1BAACxjwv8YQUAAAAJcEhZcwAADsMAAA7DAcdvqGQAAD8zSURBVHhe7b0HnBzVle//65x7enJQGuWAUALJIkeT5ABrFptgA85rr/Haa3v/7/Px7nq99ttgm3029i5r/B4YB/CanMEBEFEgQFlCaaTJeaZz7v6fc6tHCSQkMR2q+nyh1N1V3dPVde/93XPOPXWvye/351Fg6dxvFZ4JgiBUNubCoyAIgq4Q8RIEQZeIeAmCoEtEvARB0CUiXoIg6BIRL0EQdImIlyAIukTESxAEXSLiJQiCLhHxEgRBl4h4CYKgS0S8BEHQJSJegiDoEhEvQRB0iYiXIAi6RMRLEARdIuIlCIIuEfESBEGXiHgJgqBLRLwEQdAlIl6CIOgSES9BEHSJiJcgCLpExEsQBF0i4iUIgi4R8RIEQZeIeAmCoEtEvARB0CUiXoIg6BIRL0EQdImIlyAIukTESxAEXSLiJQiCLhHxEgRBl4h4CYKgS0S8BEHQJSJegiDoEhEvQRB0iYiXIAi6RMRLEARdIuIlCIIuEfESBEGXiHgJgqBLRLwEQdAlJr/fny88x9K53yo8E44knz9wmYQSYjKZCs8E4XDE8joKLFaHboIgVBZieRXQ9OnYIjXxnvejZcdlR5TC2DjJ3/A+fvoJYeKLoP1fPRz4sfTrq+qHnxwiXsTRhIv3s9WVy2qvzRYTLLSZzVy5jmhZhb9xqLDRq8KzQzhyF3/HoTsLT9/lk5PDxGlPfIF6cegPedddBzna/uNE+/h7/xG+vprLqC7Qe/Ku17oUHPm1J3t9+GfSlqN/8jl6Ths/550mrm/kI2nXpPB+obrFSxOaAz//AKry0H9UVdS/2TRgtVrg9ljh8VnhdFlgtVmViKn3c4XjepbjT/Hzwmv1eMjf5338UPhHew9vvIP3Tbw+ZN+7wccLj++ATumYFfyQBqAe1PsnPkB/8Ijj6rn6R7se2mvaDuXQ10eeE/+9wtMJVCMsPFfQi8P28Gt+D19fuqYTf1M9qJcH9/H58NOjXa9jXsd3gd99yJkcG3ozn94E/DkWmZMhR3Uum8kjk8ohmcwiFc8hRY/ZbBZmG18L+iITber76LX6Mn5evVSteB2tUmczOSRiOdjsFtQ3ujBleg2mzahHfb0PNQEPvB4HHE6r1hty7VH1qfC3Dq1M7/LnJ76SHycaoNpVOKDO6Yh97wYf0Q6/8z2qTquafRTUIXXmGtoHDr4mDvs8PdWO8nfRs0PfyKjjJ8jxfkD7yuPjnZfihDnKJT0mB+uRdiGO63SPeJ8qdvonS0qYSWeRTKSRiKcQjycRiSQwOBDC0GAIA31RjA8lkEpl4XBTB2rXyuMYVcXQVJ14vZto8a50MkdbHs1T3JjWXo8pU+vQ0lqDpmYfautItLwOsrjssNut5Dqa39mIT4Bj1rXjrIgHBPMItNM6wZM7gbe/j59tSI4shZO9Pvx3uG7mSMC4A02TiKVTGbLC0iRgSYRCcYwORTFEQjYwEERv9xiG+mJIk2WmRKzwN6qJqhKvdxOuNJnpVquZrCo3WlsCmDW/Ae2zG9DaGiDR8sLrc8JJlhaLFr/PbCbhKriLk005haHaKn7FQgWRz+eUFZbL5pAhIeONrbFoNIngWAxDQyF07x/Fnl3D6Nw3grHRqIqPnazLqleqRryOFK4Ja8tDbmBLmx9zFzZhybJpmDqtHoFaN9y0/4Bo2SzK2poI1GtWVzmlRjAsVDG5pnJ9nbDEcllyJ8nCSpO7mExkEIulEArG0Ll/GFs29GD7lj4MklvJx5SAVUnVrArxejfh4gqRipqw+rzpWHXWTMyd34r6Bh987B66bQcsLc1FnBAtrVZoD4f/TUGYDHhY5GDV0gSM66uqszm2wrIq5hUnAQuHEsqN3LG9Fy89vxN73x4lCyyrZW9WgYAZXryOFC4tppCHw27HZR85BaeStTVteh3q6r3KCuNgvK1gaU1YWROiJQjl4qCIUf1lSyyTQSKeRogEbGQoQu7jMF556W289WovopEk7G6z9pnC542IxeFwfKfwHC31ZxWeGYMjhYsL3WI2q9HDS9acghUr2zFjZgMaGn3w+1xwkcVls2kBeRXbUuIlwiWUn4m6yNWRwxdcPy3kGXB9tTuscLsdqKn1Ut0FIuEkQuNJWG0kYIXPGxHDitc7LC4SLiuJ0szZDVh99hx84IxZakSxts4ND7mKDqetEJCfSEKdcA8FoXKYEDB+5HrKAsY5iHa7heqxkzpgu3Ivw8GEEjCz1biV2NCW1wSsY5wlP7297oBwtU4JIBDgwPyh6Q9iaQl6QKunE50s3/VhIQHTEqm10Eea3MrB3hAy2ZwW/jJgtTakeB1qdWm3WuSpR3Lgg5efgpWrZx4QLpfLoZJRNeHSejNB0BMTHS7XYS3cYYKT6rrDZUM8mcBAT1hLozBg1TZcZsgR3iIyaQ7QW3D5RxZj8bKpaGqugd/vgtNpVzEBiW0Jemci1MEeBFtegYALM9obsPrMuZg6IwC7zUKuh/GMLwOmtR1Ur1QyB7fbjjPPm4FFp05Ba1sA/honnNQrHRSuwpsFQcccFDCOfTlQ3+BVg1FnnDOHxMyjYr5Gw1DidajVxa4iF+SUaQGcTq4iB+c5+ZQDmpwKwQUtwiUYCa7T7Do6yALj29l4FH3h4imYu6AJNWSNcYqQkTCMeGnCdbBw0qk86urcWHBKM2bPbkZdvQcet0OZ1mxxCYIR4brNgXun06a8jJaWGpyybArapgaoeVCHXXifETBQKz7U7AIyJF6trXVYvHQqagsJqHYHB+c1i0tiXIIR4WrN887xLW0ulx1+srhmUefNuY0eL6dRFN5oAAwhXocF6Vm4MjlMafdh9sIGtE2pg8/Hoy+cDmFRoiXCJRgbch/JArNxAJ+8DfY6Zs1twPRZdep+3kP7eT1jOP+JhSwRzWE69TQzZzWo2SJUnItMafEWhWpAeRYT8S/yNjj+1TqlFlOn1am4mFEwSHM+vCtxeayqoFpaA2rkZSLOJVaXUC1wNWehUvEvlw319V412l5X71LHjGB9GcoWmXAfm9s8aKGCqq31qMAl30Kh9TgiXEL1oASMrC/uvHleusZmn5oZmAP3h4VadIqxxCuXVxn1nB7R2ORV93ppGfQTQfrCGwWhCmAvQ1lfNs364lShKeSRIEfiRW1F7+hevA69FUhNFZIGpk2vV7EuHl3km63FXRSqFa73Knhv06yvhiafem2E1mAoy4sLiqcHCZC7yKMsWjKqJl6CUI1w1ddiX2a4nHbU1FDb8NqUO6l3DCNebIBxfgsvT+b1udQUN5waYaTRFUE4ccjroDagRh6pTfj8Lnj8dlh4qhyde44GsrzyKrbl9lpVQurBW4BEvITqhpsAtw113yO1Dc3y4jVJ9a1exrK8SKx4QVgHuY7c03ChsXSJgJUONc02LxaRziCdSiOlttQhW5qOpdU0xvy+IyeNFCYbng7HpNxEHnXnOLDbRZYXJz2K5VU5sEZxXstB1dL2676UdALPXBAOR9DbM4A9uzuwdevb2LRxKza8uRlv0bZxwxZs3rQN27fuRMfeTgwODCMeTxQ+LRQDFi5uDmb6h+Neatocr13FgvXeLHS/AMdEz809Pgfrp8+oxbWfPAvzFjSjvtFHZrJdFdohSiacJDy9cDQaw+joOIYGBhGJRbF75z5s3LQb+zv3U1mMKIuKrS5+5HUHeSK8iTLS+pSJGAyPBPNiJzz9toUeHViyaBUWL5mP5tZGBGpq0NzSjJoaPx2zqkYonBzcNlJJXqwjjs59o3jo96/hrde7EaTX7D7qFeOJV3strrvhLMw9IF4OahxcQFL5TwS+rixC4XAY/X2DGB4exoaN29Db241IeAzj4yEkyGjq7wmhu2sIY+PD1JuHC58+QagIzWYrWpvnYGp7I2pqHeom4tqAH26PG0uWLMOM6TPQ1NSIpuZGOJ1OZTmInh0fSrxSVJYkVl37R/Hw/a/jjVe7qAxjup7jXsRLOABbVhyPGh8LYmR0DN3dXeTeddDWha6uYbz80uvoH+gm0WBXj9xzeOlfD5w2O5x07U+2F+ciZCstFssglY+B7DvaS9+Rz5Gu5bFq1TlYsHAepk9vxqzZ09HePlsJWV1tAF6fR1lvwtHhNpJMckeUQPf+ETx0n4hXRXCYeJE/P609gOvJbZy7oEXE6zjhwDkH0lW8qrcPGzdsxvrXN2Ht2j9j67ZN9A4HbU0IeDxwOWxqYKRUsKiNRhJIpoP0KkRWF3De2Zdh1eoVWL7iVCxYMBetrS1wOLmcSUA5liMcxgHxCiXQ1TmCB3/HbiOJV1DcxrLyDvGaEcB1n+KYl4jX8dLT04c31m/AE0/8EQ89/CRZXyPIpOpgMztBWlWIN5lV0LccsScu2zxPwk5lzeUdT9A5WEOw2BOYPWsGrrryapx/wdmYv2CeipFJfOxwDriNJFad5Dbed++r2PhGj4qB6Vm8DLN6EGsY57L4apxYsny6msObFyPQZpTgApIKfSgceN/59m78/n8exh13/BwPPvgUNm/cj3goSa6gnYSLrp3NCquFrp+pfMLF8Peqc1BxLp6TLc9SinzWilAwg207OvHiS89gy6Yd9DoKj9eNQKBGRKwAt41MJotEIo3x0Rg2bezEYH8YaRI0HjzRK4YSL85lYfFaukzE62iEQmFseGsLHnv0STzw4AN45un12LxhGwb7xtR9oW6Hk0TLWXDBKu+asR5xDp/VaiNhtZNbaUYwGMHQQB96949h37596Ni/GwO941T+TtpcVR8T08Qrh0QsjdGRKDa9tR/DQ1GysLO6FnhjWV7UM/trHFi6fIaI1yFoMY8UOvbux0svvYQH7nsC9//+cbz04ktUidNwWFzwOD3K0tJTZeZzZSFz2m20+RCP5NDZtQ9btmzFzq1dSKZDyGZzJF52uFwuEjweZKg+2G3MkFDFYimMDIeps+okEYuJeFUKSrzY8vKT5SXidQB2F8LhEHbt2oO77/49fvKTH2Ptc28gEbWj1t9AomVX180Il8dqJyEjETbn3RgiS/LPax/Dtm17kMub0NhUB4/HoyzKanInuePieevTKRKvaLIgXl0YI/eRrTE9XwvDDc3o/X6tyaa7uwf/7//+Epdfvgb/dfu9iIw70FjbCp/XRhW38CaDwUnJ3oALTXXzsPftIP79X3+CL3/py3j0kacQjURVg64WtDLmVpFHln53hqwwnjrKCJfAYOJFJcKlUuX6pUbk4gk8/ugz+Nd/+QHu/H93Ix11w2m2wWapgtk26KepLH76vQ67BVa4sPvtfvzgh/+Bb3z9n7D2+VdV7K+aUGJF/6gJO42gXITxRht9Dixb0V61bmMykUTn/m789pcP4/77n8Crr6zH8OA43I5aFdPiUcNqgusEB/czGWBoYBide4bQ27+P+rcMGuob4Pf7Cu80LsptTGcRj6YwOhzF1s3dGB9PICtuY+WgOhftaVUSIZdo67btuOee3+Fnt96FZ//0GkJjGXic9ca2tI4Dm8UOL12HeDiNJx/7A+6661d49LHHsXvXXnVXQVVhkKogMS+DkCCLa/u2Hfj1r36Df/rOdzE6Oga/2wW3k7PjBcZEtd3lt6K2ZgrefH0bfviDW3HXnb9Fd3cfksmkYdypasFw4lWtptfatS/hRz+6Fb+6+x40BubCU+NS8zcJ74RdJa+rEZExM+74v3fje9/9d2x4a7NKJ6kG1Mwehed6Rmq3jmFDgV3F3/76Pvz0ttuw7pW3YM3XqORNlTld3Z7iMTGbLHSdnEDajqefWYcf/Nt/49GHn0EwaMRAfqFHJ9E2UpqI8cSrShosuzh9fQN48P7Hceed9+DN9TsQC+dht3lEtI4Ti9kCu9WFWCiBF1/YgF/c8T+4556H1Q3qnNhpJFizWLg49skdmxE0TCwvHaKEq3cAf/7jWtzx81/h9dc2Ipu0qyxz4cTg0Vef24VUIoO1z7+BX/z3b/HYY48jOD6usvP1jhbG43tDOXWENquZLE5e+kz/6iXipUP4puo//uE53H77XVj32gZ4nTVkcUlg/v3g89hQSyK2a8tO/M1Xv4Z1695UuWB6D+KztaU2s1ndScEL06iZhcXyqkC4rhnL4j8MbktPPP4H/Pae32HL5s1oDDQp90d4/1gdvLqOH6nxWtx44zfx3HOvGCKIzy4ih0DZ6mLx4kcjxL4MKV5G1S4ezl/7/Iu4997fYOvm7XDZakS4JhFuz7w0vsPtwMhIFHffdR+ee/Zl3VtfjBIwUjCeVohvUFfipfOfZSzxMrBwsau4besO/OIXd2DjW9uRipvIVXQVjgqTBQezbXaLypF7bd1bePTRp/HmmxsLR3UMidVEwJ5jX/q3u4xoeTEGUzDOAN+7twP33HMvnn7yT4iF8hKcLyJaEN+OaCSmLN0HH3gYfb39arpsPcJGlvaEn2vWF+/UezMxoHhxkRhLvQYHRvCHp/+M/7j1x7ChATarp3BEKCY1Hh+6OzvxyKMP4/EnnlYpFHxjs65hAeOlTQsv9YwhY17GKBoNno/rof95Brf/6D74zLOo1zTuVDaViMfRgIGuCP7t376PjRs2IRLllY30jRGC9Ywx3UYD8fJL6/DCKy+hf6wfLp9TuTR6gePcHOw+fNP26wWL2QpT3oXRHjP+8ye/wtvbd+vWfWS49hyoQzo3Io0nXlQuXCY6LxfVQHp7+/Hwww9h48a3YHfYYLVxrKLwhgqCl/lPJbMIR1MIRsdp66etp7D1HrH1IBSbODZAWwiRWBqZVE6JW8VB19tqtcNqceH5ta/g+edfQmdnd+GgPlHaVYH16EQxzHxerFY8ksIrLS9fMRMNjfqdz4sbMQeLn3j0j7j3t79HT+cgvO6awtHywxrDC9SmMhnaYsjnstS4HfD4PWidVoO2abVom1qPKdOaMG1Gs9qmTm9Wr9umNqC5tQ7NLbWoqw/A4fTSX7Qil0nT3wojQ6Kdz/FomFm7P7MCUCkGFhNC0TCSyTCamuoxe/YsXS3swXcL8PJnoWCcrMde9HWHkEimK+YanwyGWbeRA6mcfNfU6sXNn70A8xe1kIDpc93GdCqNjr2duPH6W7BvV7/qKW3O8udz8aXO57NKuDIpExLIwOYYR62vDu3T5mPJivlYfeYKTJvWBp/Pr5bld7mc1IFwnM6srEnOVeNZXpPJhJq2Z/u2XXhz/WZs3boD+7o2I56ww5z2wGayUs+ap1LT5pyvFG95OLgX117/Mfzt3/4tFi6aV9hb2XAbObhi9igefuB1rH+lE8HxOMgrVuWqR0S8KpDenj5yFx/HP/7jP5KSkQjYfRXReJOxLKLJAWTzCTT65+Pyq87E+Rd9AAsWzEdjYyNZvS4SKnKxCkmQh26MVlQH418sguk0WW8k1vFYHPv378fmTdux9vl1ePXlV9HZsxNOzITP74LNXhkRjiBZLrPmTsF1n/wQvv6NL2lpBxXOYeLVOYrHHnwDb7zaibGxqAocFZqQ7jCe2+hjt7FdCZce3Ua2Sl55ZT3+5V9vQ3QsC5vVWdYseq7YGXLpxqNdasrks89djU/eeA0+efPHcdkV5+PUJYswZUobAgG/Wl6MXSmeI1+bJ39ioVhNwJT7VdjHx3klHxY7ts68Xi/qG+oxo306ltDfPG3lUsydNwdZckmHRvchFovBanKWfYVnK513KDqITC6CxYsXk+tbq35LpXOo27hzRx96u4JU19htLLxBh4h4VRj793Xi6aeexf33PwWfK0CNpXypEYkUWVqJGEyWKM46+3Ss+dCl+PBHLscFF5+LpcsXobWtedKWE+PPs3vp83nR3NyIGTOmYebMmZg+ow219V6yGlLo5YVxs+SqlnH5MhbPdCqJcCiGUCSNM848TYlvuc7neDlSvHq6SbwSIl6VgQHEi92n559fi4cefBx9PeNwO8nSUOdeelLpGJkZZjQ01eK0VXPx2c9+Bh/56BVYsuwU1NXVTopgHQ0OIjscdjSQJbZg4VzMnTsXVpsLwUgMqUwciXiQvpssOM62LAMWk12JwI49O7HmiotQWxcgi9NaOFqZvMPyIvHi5f/1LF46PnXjMTIyihdeeIG2taj11ZBwlaN48uSqpZHKj2P2nFp8/nMfx+3/9TOyui4nS6tFiVYpYZds9pxZuOWrN+GnP/02rv7YxXD6EsjmY8iRS1kO2Pqy2rNkgfVj7drnMTw0XDgilBLDiZdeg4/MW29uxJ49g2RVsHCVx+LK5jIYGt+JSy+9GN/++/+Fz3/xRrJiG0hEyltVWDQXLpyHb3zrK/jxj2/DtJm1KvbEy3eVA7vVC2uuEd/73vewbfvWwl6hlBjT8tKZgPFoUCKRwKOPPoQtmzbB7/IXjpQOFv1kKkIW1xD++it/jS988bNYvXqlikGVW7gYdlF5MIBdyXPPOQt/9//9Hc69cCW5kr1IRDIl77TM5G9xPDIYHMfePR1kfY0UjgilwnDiVfmRrXeSyWSwZ3cH9eA7MTYahN1mLxwpDZxmkkiFUNvoxPU3fBw33HAdTl+5XMVyKg12pevq63DRhRfixhuvx8WXXohIIoNENKMy/UsGVTQzz4GPRrzywiZs27qzcEAoFYa0vPTmOcbjSTzyyHMY6o9Rb84jV4UDJUBZXOkoahucuPDiM/GVr3wFpy45RY0iVjKB2hpcdvll+BxZiMtXL0Y6y/liZIGVcNYHvgvAbW/Cqy+/gQ1vbUS1LJ1WKRhOvPQmXOwyBsfD+NlP70dfZxxOawldRvrubDaFrCmISy47F7fc8lXMmt1e8qD8yeL1enDeeavwwx9+Ha0za5BDWlmxpYJHRV1eK7r6d2HXnu3iOpYYQ7qNenIdY7E4Ors6yXLYAauDLC9r6Yokm89gOLQLf3H1lfjEtddh9pyZhSP6we12qUTZ2277HuYsCiCWGimp9cUDKyaTG/0DQezt2FfYK5QCcRvLTDAYxOZN25BOu0h0bSVT3lQ6jVg6Ra7XGnzs6qtw6qmn6MbiOhQO5HOSKMfobrrpJixdMQ+heF/haGlwoAb7dw3gzfUGmC5aR4jbWGa6u7pw//2/hyXvBK90XQo4sJ1J5eGyeHH11Vdj2bIl6tYfvcJB/JoaPy697BKcf8F5aGhsVNPssEteCpwOJ/p6e7BhwxsIBUPqnk2h+BjSbdQLPDd9J4nXs8/+ETY19F4ayyeVjsPjtuLsM1bhvHPPQn19XeGIvmlvn44LL7wQq884g8RrHLkSiZfNwfc7jqJj3250d/eqbHah+BjSbdSLgIVDEYyOjNEzni+Kb2DW9hcTjgdl8mG0L/Lj69++ES1tjbp0F4/Gaacvw5oPnwe3jxeM5fyv4gsYl5vJZEUkksLu3R0lHTSoZsRtLCPBUBDDw3xrSenkNhJJo75uBlavPA/LVyzR1YR6x4PH48aK5cvxuc99CbFMEsl0qdIXfAgGbdi8eYuyqIXiY0y3USem17693di0kUeoWmkrwU3GpOyp3CCWnT6TrJNL1HQ0lT4bwonCv4en6Fmzhn6fI4pcLskZIUXHYbEhHU1hy4ZdCAUj5Drqd557vWA8t1FHjXHPri5sfnMP3HY/6W1xz5sbcDqRhdftw6JF81V6gVFxk/U1f8FcXHrpRfDWeMn6ShaOFA+b1YJUMortb29SFnU2I+JVbAwZ89KD6cXT3/R096Nrfze8juLPT5XP5xBNBLFw4WIsPmUJAoHKmRN/suHRR/591117PRqbA+oOgmJjsZqQzsXRN9iB0dERlYoiFBfDiNcBz8DE855XvnzxkHowOoy0OQSLrfjB+jyyiGY7ccmaVTh91ZLCXuPCLjHnfrW0emCxZJAtQeIqW8/sLfb2DCARTxT2CsXCeDEvVUdLEOR4n0RjMSSSIRKtuMrSLhWz5sykBt1ceGVc2PqqrQ3gvHMuwvT2BQhGShG4dyCTqcX+fT2qfIXiYkC3UQ92F9+MHSfXkXvn4gttOp0DGwKrV12IqVOmq1lKqwGeyHDhogWYMrUO2XyosLeYmJHP2TA2PoZ0Sm7SLjYGDNgXtgqH87vCIY6LuLQdRSSbSyFHFt65556N5uamosfXKgm+X7O1laf2KX7ci2eZQM6qyjaR5FHOyvcA9IwBLS99MNA/jPEx7p150dXikkcaFnsEpy5dgJpA6Sc6LCctLc1oamqCw+os+nxfvIy+hZpUT9cgImGeploy7YuJiFeZ0CwvdhtL4cJlYTan0UJWF9+HV0047HY01U1HY+0sJBPZolpDPOOsg1rUnrd7MDYSQkbSJYqKscSLvCG9eESRaFRNXmcpRXIqwQvBTpvRBren+G5qJeFwOjB34VQsWDoD44kkijnoqNZLseTR0dODYIQTZMXyKiZieZWJRCKObCrNi9kX9hQHtjTyef4OG+x2hxqFqyY4vseTFvprvCRcHGMsnnpxqoTZnEMmO0jCFZOYV5ExZk3WgfXFi6fmc+TOFflkOc7DK003BmaQ9WWs+xiPF4fDoSYtBIqcOEpFqVn+cRIudhlFvIqJ8cSLK1DhaSXDGe+l6JlZvOxWN6a2zirZlDuVhiZeDnrGAyRFvuYH4hZs8RaeCkVB3MYykePgC9XuYgstixfnO9U1aEuYVVOaxAQ2uw1OJ1udpcmrO4ioVzER8SoTPOsAC0uxb8hW7Yc2XuVZHzbp5GMxW8jq5Kou9xsaCRGvMsGLlmpWUHF7Z17hht3TaDSprL1qdGX49ytLt0Qju0JpEPEqE2rVGRaWwutiwRZXIpPG/q6Rqs074skBkyn+7ZxTV0rrszot3VIh4lUmOGWBLa+ii5fVhFQmgd6BbmRzPD1x9ZleqVRKLezLN04XnQOXlzon0a6iIuJVJkycb6XEq7hiwhae2ZIg16mLXKfqnFs9mUwipqaoKb7lpZUmNyv+HlGvYiLiVSbsVgdZRVZkS2AJcRPiuE8wGKrK+dWTqaSaxQMobqoIX+O8Sqr3wWyyiXQVGRGvMuHxeGBz2JFBaW4h4dHNnp5exGNsgVQPPGNt175+dO7qg8/mIEEpnqTwYEg+Z0K9Zyqcdq9mXQtFw3hXt/iGzKRQW1sDj9dBp1sKS4gsvKwTA/2DSCSqTbyS6O7Zj86uPXA7yRoqYiCKU1+yGRNmzpqGmhqfyqsTiodc3TLR2FSPmgAHkNmdKS7swiDjxcbX38b4WCkm5ascguMh9A92YyzUD6u9uNNt81TTaTK/Zi9oRaCOk4IlNaOYiHiViaaWBgRqOeu7+GJiNdthzThx36//gM6OPhWbqRb27evCwMAYYLIWPX6eo/+ylixa2hrIqnZX3U3wpUaubpngmJfTWYKhe4JXtrG68hiIbcbQWC/iVbQ4xN69Hejv4/nkG7QdRSVHll0WPq8ftiq9Cb6UiHiVCZfTBYfdC+Ttagn+YsOxnmzOgv37uzA4OFTYa1zYugyHo3j22T9i7+634XeVYh6zFLmKY5gytQUuNYuFUEyMJ146GZ/21/jgdtdRK/Mim+VhqsKBIsHzq7ttDXjm6fVY//q2wl7jkk5nsHv3HuzavQ/hUBh2WyniT1lYrWlMn95WmIJHKCaGEy+daBe5jW40NDShxt+IdJKzvYqrXiaTGV5nAK+8/AbeeHMDolFjL83FeV2PPfokhgcjsFncRQ3UM2w9m2GDx1mHpuamqlmhqZyI21hGZs5owcKFMxBN8EozhZ1FghuvzWFRbk1f727s2dNROGI8+B5Odo3/6/Y7MNgzDhe750Umk8nDavZgevNi+Dw1dJ2rc+60UiLiVUbmL5qNlWcuQAr9ZHeV5qZpJ1rxxssdeOj+pwp7jMfw0DBeeP5lJJMJNVihTQdUXOKZDGx+F1afdwrqGwLkPop4FRsDipdeHEegNhBAS3M9CRfnehU/aM+43A4MDnfhtfUvYtvWHYa7XYh/z+Ytm/GT2/4POXE+2G2liT3l8zH4fMAppyyAnVzGYrupglheZYXXUGxq4iH84i7JdSgWmxm5rAl7dvTinrsfVkmrRlrlZu+efVj7/GvYsqUbVpMLFnMJLCAuunwCfr8ZCxbOg80mVlcpEPEqIxy0b5vShpkz5yDNt5aUSEQcVh/GBtO4/74nsWXzNkQixV9NuhSEQmG89PIr+POfX4DT3kDWT2ky3LOZHBx2J1pamjBzdru4jCXCeOKlM3N92tTp+Murr0Mym0UqXZopa9j6ylsz6B3uxQMPPIx9HfuRyeh7upxsJouNGzfh6aeewsY316Pe51HTAZWCRDyDxvqpWLxoBRob6iWzvkTIVS4zdXW1WPWBZbA7hulV8e9znMBhc8BtdeFXv74TTzz5JDo7uwtH9AcLV3dPL2699Ud49o+vwu+eWtJOLJ4PYcbcZpy+aqnuOk89Yyjx4ulOijnlSTHw+b2YP38OuRom5MltLFXsizPurRYbrLl6/Prue/Dggw9ieHikcFQ/sMXY1zuAH//oDmxe34ds0lXS9SnVHF75MNqm1mLevDmFvUIpEMurzNhsNpXUeOkll8MbqEEyxWsLlgZOXHU5atCzbxwP3vcY7r33XhU30ksAn/O59nV00Xk/hMceX4twKAWH3VWykT7uZ1LxLGr9jWifMRNtbS2FI0IpEPGqADhwf+0nrkdjcwDJTGkz3zkHyu2ow9aNe/HLO3+Lxx9/DKOjY2rywkqGUyJ27+rAo4/8Ab/85f3oHxil38JrNJauSvPCwbF4EIsXL8Epi06F11f8ZFjhIMYUL53FHex2O1actgytbV6yxDKFZbpKB89z5XHVY8+OQXztb/4WL7/8CkbIhazU1YbYVezs7MJvf3M/fvJ/7sTOnb3wuxwlun/xIPl8BrF8Fy6+fBVOW3lqYa9QKgwnXnqMl/LoVH1DLS6/9MOYPW8xxiKlC9xPYLGSgLlrYM7U4/Of+zx+8+t70NPdWzhaObBw8ejoN7/5TfzstjsQHEmgMeCFpUQjixNwrGuik5kzV1zGciBuY4XAArbqA6dj7txmahQjKp5SavgcrBYH8ik/7rzzV/jJT27Diy+8glQypRpruRkaHMYjDz+Br33ta3jztZ0w551wOi0lFy4mlYkjhTF88YtfwoIFC2XW1DIg4lVBzJ49E6edthQzZ01HOJ5CrgyCwUF8p92Pvq4xPPnE87j9v+7Gnb/4HXbt3Fu2SQxDwRBefWU97rrrN7jj5z/Hulc2IxkDXA4Xudmlr8I8g0Qmk4bZmsOVV34UU6ZMKRwRSonF4XB8p/AcLfVnFZ7pD27nvOCBz+/A0hUzyA3zwu1xwG63FpIVK9+h5JlVeaBvcGAMr7+xAV6nq2wJjzarG8HxKHa+vRdvb+1AJq9l4fNsCTxCyrfAFHMxC463hcMRdO7vwosvvoQH7nsCDz/4NDZv3gSvoxlWq6Oo338s0ukEHC4Tlq84FZ/57M2oq6sr27kcL9lsDqlUhjqCBJVpH3VOQSQSaVBfpVtEvCoMt8eNWGwczz77GGwmH527pWwNw2a1g6QKo0Pj+NPaR9Gxt4dcyDTcbidcLre6onxuE9v7hVM0eBLBBFl4PKUNZ8z/z+8ewU9/dhteeO4NJKJ21Pr5tp/ytThelzGeHsW8hW34+29/G/Pmz1FCXukcKl67d5B49YaQJPGii1l4h/4Q8aow2Ppi0YhGUtiwZQ9M9LusZYyn8LWzOaxwu2rR1RPBiy+vxXPPPY29u3tUwNpqtcBB5/x+J99j4RobG8fuXXvw1FN/wn/f/nPc+h8/wrrX9iOfssHn9tN3FNfaOx7i4Qzq6xpwwcXn4YZPXUPl5Sz7OR0PE+IVDsaxi8WrJ4h4nMWr8AYdIuJVYXBD4ClV3G4PHnv8T8glcyRe1GjVbygD9LV8TmaTRQVIzXkTWUB5dO4dwutvrsUzf3gJr7+2kayyDowMj1IjSZPlGFdBfo7ZcZlMuL4c9GfLKhKJKaEaGx3D7t0dePnFdXjg/sfxs//8HR586Pd4/rl12PX2EDKJPGxmKkOrjf5O+SzQQwkn+nDWectx/Sc/jnnzZutCuJh3iFe3/sXL5Pf7qdlrLJ37rcIz/TAxCsZWgM1mQds0Pz716XPJnG9BfaMPHhIwvvVGT6XE8Z7+/gF8959uxZ+e+RPC43G4nP7C0fLDc+6zy5HBGAmUDTW+WrS0NKKxrQ4trW5lhdntHnqsgcPuht1iI/HjBUBySGZT1Iii9Plx+p1JBMmNGewPU2MaQXfPMP29IAmCDTYLdT5kaVVKsbEQR+NxTGv349OfuQ6f/NT16r5UPcBtJJkk4Qon0NM5iscfehPrX+3E6GhUDdlVwkjyyWBA8aoh8TpH1+LFpFLkNr61mQTsu3h93Q6yeLwlT8I8HnjkLUXWYYLON6VuLB/jncjDSY9u2uywgaxfuv5Z5JAx8ewVSRKoCD1mqVgcdMwHm8lNrqlV5ZtVmjHDVSydymIkHMZf/dU1uPHmv8SK05YWjlY+RhWv8kU+i4S+JOrocNb9qg+chgsvuBQtbe0IRitzrUV2Zx0uC2pqXGisqaNtNhpq5qDBPxX1ZJHVej3wutkNtsFHHUmd14t6fz0db6f3zqFtGuprAvD77bDaKk+4GJ61IkWWZmNtCz54yUU4dcmiwhGhnBhOvIzGtdd/DOdfcAr1jv1q0js9oGJkJGpsRbEgWR0WbbPTRvs4DqZieDroadgoSWUjMHsH8a+3/jVWrlpMv0EmG6wERLwqnMamelx51UdxzcevxFh0H7nH+po0kC2pQze9mcax5BgCDQ7ceONNOPe8M1BXH1DiLJQfEa8Kh3v5ZcuW4mNXX4Uzz16JZHYM6Wz1LNdfTmKJJLx+H844cxWuu+4TaG1tUQm6QmUg4qUDamsDWL36A7j5ppvQ3BZADlkSMH1P21zRkKuYSeUQjWewYOEpuOqqK7F8xVLY7SJclYSIl05obGrAFWsuw19c+XHU1NUhkUqqEVZh8uHrGgvHEfDU4qLzz8cVV1wirmIFIuKlE7jx+MiF+fItn8Way89HgKyxsYixl+wvB9pN1ylE8h345t9/AtfduAZ2h1hclYjxxMvAHSSP0jU01OHmz1yLK6/8IAIBD0ZCcbHAJgkWrkQqipxtDN/7/j9hzYcuVetqitVVmRhLvFQdM3ZF41ttFi6ah6uvWYOr/uJSuN12RBIppLP6SKOoVDgNJZYIoaHFhU9/5gZcc81for19hi5uuq5WDCVeLFvV0EfyCOTKVctx401Xkwt5Ljw+twrgpyt83vlKROVxpbKIJ+JobPbjsivOx1e+8hVMnzFNJQoLlYvEvHQKWwQrVpyK//3vf4dLLl4Jt8+JZJqD+DIKebzwbTEZEvxoLAOTI48rr/4wvvGNb6BtSqu6EVyobES8dIzZYkZTUyP+5Qd/j0/e8FE0tdgxFukqHBXei2Q6g9FIBG1Ta/DP//x3+OIXb0ZzS1PhqFDpiHjpHIvVgsbGenIhP45bbvkrnH3OaoyEOtTSYDq937YkxBJjsDpjuOzS1fju97+BNR+6WC2iIRaXfhDxMgAcxOcVbNZ8+HJ86sYbcPkVFyKDcYSjERXPEQ6Sy/LUNiNoavVjzZqL8YUv3IBLLjsfU6a2wiZJqLrCeOJVpaPaPJw/ffpUapCX4ctf/jLOPm8FGlvqkDdlkEpr889XMzyXWDyZQiw5jikz6nDFhz6Im26+EZddcTECAb9KQxH0hZSYwagJ1OCc887CbT/9KW644aOYNtOLNFlhmWxK5YNVoyuZy/PtVGnEabN5Yvj8Fz+Nv/naLTjzrFWSw6VjDCdeqipWeayH4zYtLU0qG//7//ufcdVVH8bg2E4ER2PIpKsrH4zzt0KRQTi9UXzyuivwyMOP4LrrrqXr01x4h6BXxPIyKCxgdXUBNaHhX33pC/jhj36ABYtnIpUfRjgyjKyBRYytS54rfyTUh5FwB848Zzm+851/wF9/9bNYfOoi1NTUSGDeABhuAQ5/jRNLlk3X7QIckwm7RLy6TUNjA2bOmommpno0t9YiGk2jp3eQXKlxIONQAf+yLfAxiXAwPpFKIJoM0e+Jk2itxGVXXICPXX0lLr7oIrS3T1dT2lSjq3jkAhy9BliAw2DiZSHxcol4HQFfF5/PS9dlERYsWACrw414KgaXO4tU1IJUNop0JkPXUFvpR09tW91InabfkQlT48zDW+PGjNmNWLZiLj7z6Ztw3bWfwIoVy+HxegqfqE6MKF7iNlYZM9qn4atfvQm//tVt+Pa3/wErz1oMXx1VbMQRJxHgwH42l63o4D6fF59fNpdBhkQ3k8giaxqD1WPFORecje/987dx55134cMfuUJNJSRBeWNiPLcxQG7jUrG8joVyJ11OzCQhu+iD5+Kss87E1KltiMaGsGPXekTiZIUlLLCYaLNVVv/G5cyDDuORKILRAdhdSaxYuRyf/fzN+NrXv4Br/nINFiycCxf9PhGtgxjR8jLU0mcsVFOnB3D9jWdh3gJ9L31WKvj6RUgIRoZH0NnZhR07dmD79g5sfmsndu7ajvGxMXhsLbA5edHXwodKTDaTRyyVQCIdphOOUFm34KyzF+P0lfOxcNEczJu7ANOmt6l1FFm0Jha5FTSMuvSZ4cRr2owArvuUiNfJkElnEAqF0NnVg11vd2Dbts14683N2LCuA0lyzax2E8yW0l1HbaHXGLmGZirXZsxb2IbmZj8CNe04/fSFWLhwFlrbWlBTw0mmMnp4NIwqXoZzG2vIbTxV3MaTgm/0drldKgdq/oI5WLx4ET1vw1hwDHt27aZ38HJmpREJzojP5LKobawh0ZqHyy8/Dx+/Zg3WrLkCl11+LpYsWahuona5XGJpHQcSsBeqBiuJVFNzIy68+Bx88399Ab7mFLKmhLJwS0EqnUY8k8R1134It//nP+If/uEWXHjReZg1u12NnIqlJYh4CcfE6XSgvb0dN1x/E/z1LWrW1mLDbkw+lyarKouPXnUF2mdNJ4tPZjQVDkfESzgmPGLHM4q2tLTAYbeQsBR/lopcJg+nzYO57fNRFwgUEksLBwWhgIiX8J6wcCgBUbHD4ruNHL80wQI73PTdUkWFd0dqhvDekJjk8zlNVUoA61U6k8bIaBCZTLZUXyvoDOOJl/gXkw5rB2fdaxpS/OvLo8PpfAoD4X41lY12BoJwOIa0vES+Jps8crlc6SwgKkCTKUlPhug7+Z5LbbcgHIqhxEtEqzjw6F88Fkc2yypS/CrDgwSaAc2DA/ydol7COzGk5SVMLpzgGApFkUmziJS2i+Csf71mgAvFRcRLOCYsHBw0D46FkU/nYClhleHvjsUSyNL3C8KRiHgJx4QFhGclHR8Pw5TOwlpCy4vjbKFQWM01JghHYizx4nYlga9JRbO8MhgdCpP7mIVF3eReGvi7I2F2V0W8hHdiKPE6GJERBZs06KJmUll0dQSRTGZLOF20CfmchdzGuFqSXxCORNxG4Zjk6b9MNoOx8Cgy+VRhho5SYKZvtiGeSCAn4iW8CyJewnvC6x4m88PIm9IlzAEm8crbkUql1fQ4wuTCxTix6RURL+GYcNxJy7caI+FKqRys0sDiZUE6naZHEa/JRBUhbXqfJlvES3hPNAErVPaS1nczsuSy8gpBwiRiMsNc8rKcfES8hAqFW5ZJuawcdxMmB76SuWzOEFdUxEs4JlqqRDkC5ib6blNhVgkRr0mDLqVa1s4A8iXiJRwT7qWTiWQZBITFy4I4Z9jLaOOkwsm/SrvEbawwdF4glQbnWHGuVVnEK2dBcDyCdEqSVCcTvsGe/9N7UzGceIl2TS58X2HZxIvcxvHxkEqXECYHLkW2pg3gNYrbKBwbnoQwHk+UXLwsJF62nAmhsShSSU6XMEBrqwToMkrMq5IR82vS4OlwtJhXYUeJ4KF8vgk8OBZRlpeI1+ShriVZtXrHUOLFxaHzvLuKg4O7yVSKKjyvk1i66sLz2PNasqPDERJPcRsnE6Vdhed6xjjidaA0RL0mExavNMec8nZ6VULxol6IBWyoL4REXCyvycQo19I44nUIyvoSE2xSyLN48Wym5MSVsmPg4sub8xiMjCORLv5Ct9WEUZqG4cRLlQv32hPPDWEgl48c9dJqMkDlNpaw1lMZms05ZPM9ZCnEpBgnEQv540bQL8OIl7ZoA1V4CxXMhHIZoYTKDLsYnCSaV1WldBeUy1CVI6L03Wz5iXpNBnxNzdZCG9E5hhAvTbjox6jHd5aKhEtOHhavXI4z3Pm6lrjGG6CBVQIH6j89cidg5pEQaid6bxa6F6/DxIobWiEBjwtMKzRN2ISTRVuzsRxK8m4dkXCSUGPgjkiboYMbh/agZwzjNjIqPpPOqtsfCspFcKEVngonDld4lEe8hMlhQqdYuLIZHj3OHphmSM9NwzjiRW2LxStFBTMhYKqnodIR8Tp5eBbTRJzzvLiqlEfAOFWjPDNb6B+VFkEbZ9VnyCvhthGPpQwxO61hxIvHFzk0E49kEIsl1fB+riBgwsnDoqHubcyVT7w4w55XMBJOBr5HVHP9uSwTibQmXhxeUcWp3/ZhKMuLra1oJI1wKKaysnmUjHsc4eThG7OjkThZtWUWL1n+7KTh/ps78lQyQ2WZVG1EiRcLl46bh3HEi2A/PhnPIDgeQ4xcnXQ6p8RLrK+ThC5bhtyMSCRBz1m4yiRe6ZS4jSeNVv9ZrNjqCgbjiIZJvDIkXjpvFoYSL76dxGTJo693DCEqpFQqowqNC08E7MThK8YJqtFIDJaciSpLecRLxbyyYnmdDNx5s0cyEevi+dHicV6RidoEHddzqzCYeHFaRB69PeMYG4mqwuJC06yvwpuE44cuGk8EGAnHYCXLq1yVheOX7L4KJ4bqsOl/vnbJRAbjYzH0dI7SLv0H6xljiRcZBqxR/d0RDPaHyPqKqbmgDlpf2vuE44P7ZrZ6wnQdLXRty5V3xfEucRtPHK7vPKqYog48Gk1ieCiM7s5xVa5sRGu2l34xlHgxXBzhYIqsrzFVWPFY+oD1pR0Vjhu6XBzkDQ5FyR1ny7awv8TwSKOW5S8cLxOhEu64efBqfCyKgd4ghgeiStCUcOm8ORhOvNg2sDlM6OocUVskkkSSGiAXogTvTwyu4IlYBsO9EXVhy2V58WyuWpa/cDxMeBkc6+K4b4ysrv6+cfR0jarOnAe2+LjeW4LhxIsbmdVmxv5dQezaNkzu4zhiJGBsQaj16rjQRMCOm2QujaFUTOsVyqNdRNm+WLdwR80WazyaxthoDPt2D2N/xwjMNhO0VRv13waMJ14M13VzDr29I9i2pQdjYzHEYinl+0sPfmI4HTY013qoNdCLMtV3l9MJu50nQxSOB024smoSx1Aojv37hpRwjY8mqG1w780deOHNOsaY4kVYqIcZ7A9j68ZedO4fViMt8cNyvwpvFI4Kzz5QV+fD0uWzkCb1ypRa+AtlVFsXgNdHAiq8J1y3tThXBuFQAkODIWzb1Esu45haxk65lAawuhjDihenTcTIZN6/dwwb1u/HQH9QFSYHLzMZEbDjgWNcjU21+MDZpyJrjiFLLmSp4KBymhrh1KntmDKlDV6viNd7MRGg5/t7Oc41MhzBzu192L1jQHkfPOjCdd4o9d6w4sXYnGZEY3G8/Pwe7Hq7n3qh8GEB/InApnB0amsDOO30JQjUpsgSSyCXL/6oH99gn0ilEMtk8OEPfQwzZ86CzWYrHBXeDa7Lyl1UyahJEqsoujtHse7F3RgeDtMx6rBVfTdOhbc4HI7vFJ6jpf6swjNjkSZLa6AviLp6L/w1LmoIFlisZuUWsXWhbYU3C4dhd9jJbatFLJLBrj2bMT46DpvFQ9euOBeMG1ckFkEwFkVNTT2+9/1vYN782bDbRbyOxoRw8VQ3WhZ9HPs6hvHqizuxfdOg6qyVs8jiVfiMETD5/f4Dv2fp3G8VnhkM/oV5E05d1oYzzplLj9PR0OSFz+eEw26FlcRsojGWKx2gkuEk0T179uGZZ57B/fc9iHWvvq7c8qJAZbVg4WKcf/6FOOfcs3DhRaupnLyqoxHeCVtU6vYfdhVZuIIx7Nk5gPWvdmDdC3vJ80gim9e8DLa8jETViBcXsNdrx/xFrVi5eiYWL52GhgYvvCRgTqdNCZilMP+9CNg74Z69q6sb69atw8aNGxAORxCLxui6vr8gME9lxNfbYrHA4XTA7/dh/rwFWL58BebPn6P2SXkcjqZBBTcxk1VpQEq4xhPYu2cAb722D5ve6EY/eRsmq1Z2RhMupjrEi+Dqn0lrAjZrbiNWnjEHC09pRVOLnxqMEy63ndxJssKUO8nvFlfyaCSTSYyMjCMUDFHjSavG8X7g622xWFVQvr6hDi6XUwTrKGguomZxcXyLZ4rgOC7fy9u5fwRvvb4PWzf2YLAvDJMtD3UDNm+FzxuJqhEvhptDNpNXDaOxyYdL1pyCeQtb0dIaQKDWBbfHobmRLGBkhXGjkkYkVALKuqWWqrmJ2ogip/6Egwl1G9z+fSN4/eXd2L5pANFoAma2uJTQGVO4mKoSrwPwL86bSKSsOPPcWVi+cjraZzWRgLmp92c30go7iZgW1NcETDRMKAcsWNqmpUGwtcUBeE6F4Gmf+nrHsWNrL157uUPlNabJjcxxDn1BuIxMdYoXoSpEFvB4nJg6I4CFi5uxaPFUtLTVqhFJN7mRLGIHY2EiYELp4XrKs6ByginHtjhrPhwma2swjL27B/D2ln507BlBKBRFMsWjiprQGTHGdSRVK14TpJM5OF1W1Dd40dpai9nzGzBjZoOKhQUCHiViSsAmXEgRMKFEKCEi64mTqpPJNCIhzUXkG6z37R5Rk24O9IVIuJIwmdk9ZNHSxKsaqHrxYrisMykq+Awwtd2LaTMaMGVqrRKwOjUi6YDNWkinEPESioxWxbSFM3iUnEcS2UUcIWuL3UQWr+59QaTSZGnxvYr0AS0oT/9Vh24pRLwOgSsNB/ST8RxcHiuaWj1onVJDrmQADoe1MAop6JmKLMEjTkq9ZCufWibPRTcyFMHgQBhDfRFEgiltbjXaeHYIFjgWrGqxtg5FxOvd4PuPqe5wJcrTv3xLn6obXEn4eOGfAxeuADmWhWca7xoj4w8duX/i774rR3zP0d/4Tt7t+ycLOg9t2u3ifs3kU4hdlvukC+WoYqlmwMyPaju4n89RGft0PEcWFltXE7f4qI3eV42iNYGI1zHgeqEqSVZ7fqDGlZOJUyh34yPUKUy0Nh2gna96WgmXrwCdyaGipT1o8CH+x6yl92hyVaiLXC/Vq+pFxEs4KQ5rZHqhIk/6eE/qEOESFHLDmHBSqM5fbxv9U3lbwQV8z017v3AQES9BEHSJiJcgCLpExEsQBF0i4iUIgi4R8RIEQZeIeAmCoEtEvARB0CUiXoIg6BIRL0EQdImIlyAIukTESxAEXSLiJQiCLhHxEgRBl4h4CYKgS0S8BEHQJSJegiDoEhEvQRB0iYiXIAi6RMRLEARdIuIlCIIuEfESBEGXiHgJgqBLRLwEQdAlIl6CIOgSES9BEHSJiJcgCLpExEsQBF0i4iUIgi4R8RIEQZeIeAmCoEtEvARB0CUiXoIg6BIRL0EQdImIlyAIukTESxAEXSLiJQiCLhHxEgRBl4h4CYKgS0S8BEHQJSJegiDoEhEvQRB0iYiXIAi6RMRLEAQdAvz/QoA60ilVxgEAAAAASUVORK5CYII=;" vertex="1" parent="1">
          <mxGeometry x="66.5" y="1018" width="91.82" height="90" as="geometry" />
        </mxCell>
        <mxCell id="LPtJNR68yc8nHozL9RRt-9" value="" style="shape=image;verticalLabelPosition=bottom;labelBackgroundColor=default;verticalAlign=top;aspect=fixed;imageAspect=0;image=data:image/png,iVBORw0KGgoAAAANSUhEUgAAAS8AAAEpCAYAAADCh6TFAAAAAXNSR0IArs4c6QAAAARnQU1BAACxjwv8YQUAAAAJcEhZcwAADsMAAA7DAcdvqGQAAD8zSURBVHhe7b0HnBzVle//65x7enJQGuWAUALJIkeT5ABrFptgA85rr/Haa3v/7/Px7nq99ttgm3029i5r/B4YB/CanMEBEFEgQFlCaaTJeaZz7v6fc6tHCSQkMR2q+nyh1N1V3dPVde/93XPOPXWvye/351Fg6dxvFZ4JgiBUNubCoyAIgq4Q8RIEQZeIeAmCoEtEvARB0CUiXoIg6BIRL0EQdImIlyAIukTESxAEXSLiJQiCLhHxEgRBl4h4CYKgS0S8BEHQJSJegiDoEhEvQRB0iYiXIAi6RMRLEARdIuIlCIIuEfESBEGXiHgJgqBLRLwEQdAlIl6CIOgSES9BEHSJiJcgCLpExEsQBF0i4iUIgi4R8RIEQZeIeAmCoEtEvARB0CUiXoIg6BIRL0EQdImIlyAIukTESxAEXSLiJQiCLhHxEgRBl4h4CYKgS0S8BEHQJSJegiDoEhEvQRB0iYiXIAi6RMRLEARdIuIlCIIuEfESBEGXiHgJgqBLRLwEQdAlJr/fny88x9K53yo8E44knz9wmYQSYjKZCs8E4XDE8joKLFaHboIgVBZieRXQ9OnYIjXxnvejZcdlR5TC2DjJ3/A+fvoJYeKLoP1fPRz4sfTrq+qHnxwiXsTRhIv3s9WVy2qvzRYTLLSZzVy5jmhZhb9xqLDRq8KzQzhyF3/HoTsLT9/lk5PDxGlPfIF6cegPedddBzna/uNE+/h7/xG+vprLqC7Qe/Ku17oUHPm1J3t9+GfSlqN/8jl6Ths/550mrm/kI2nXpPB+obrFSxOaAz//AKry0H9UVdS/2TRgtVrg9ljh8VnhdFlgtVmViKn3c4XjepbjT/Hzwmv1eMjf5338UPhHew9vvIP3Tbw+ZN+7wccLj++ATumYFfyQBqAe1PsnPkB/8Ijj6rn6R7se2mvaDuXQ10eeE/+9wtMJVCMsPFfQi8P28Gt+D19fuqYTf1M9qJcH9/H58NOjXa9jXsd3gd99yJkcG3ozn94E/DkWmZMhR3Uum8kjk8ohmcwiFc8hRY/ZbBZmG18L+iITber76LX6Mn5evVSteB2tUmczOSRiOdjsFtQ3ujBleg2mzahHfb0PNQEPvB4HHE6r1hty7VH1qfC3Dq1M7/LnJ76SHycaoNpVOKDO6Yh97wYf0Q6/8z2qTquafRTUIXXmGtoHDr4mDvs8PdWO8nfRs0PfyKjjJ8jxfkD7yuPjnZfihDnKJT0mB+uRdiGO63SPeJ8qdvonS0qYSWeRTKSRiKcQjycRiSQwOBDC0GAIA31RjA8lkEpl4XBTB2rXyuMYVcXQVJ14vZto8a50MkdbHs1T3JjWXo8pU+vQ0lqDpmYfautItLwOsrjssNut5Dqa39mIT4Bj1rXjrIgHBPMItNM6wZM7gbe/j59tSI4shZO9Pvx3uG7mSMC4A02TiKVTGbLC0iRgSYRCcYwORTFEQjYwEERv9xiG+mJIk2WmRKzwN6qJqhKvdxOuNJnpVquZrCo3WlsCmDW/Ae2zG9DaGiDR8sLrc8JJlhaLFr/PbCbhKriLk005haHaKn7FQgWRz+eUFZbL5pAhIeONrbFoNIngWAxDQyF07x/Fnl3D6Nw3grHRqIqPnazLqleqRryOFK4Ja8tDbmBLmx9zFzZhybJpmDqtHoFaN9y0/4Bo2SzK2poI1GtWVzmlRjAsVDG5pnJ9nbDEcllyJ8nCSpO7mExkEIulEArG0Ll/GFs29GD7lj4MklvJx5SAVUnVrArxejfh4gqRipqw+rzpWHXWTMyd34r6Bh987B66bQcsLc1FnBAtrVZoD4f/TUGYDHhY5GDV0gSM66uqszm2wrIq5hUnAQuHEsqN3LG9Fy89vxN73x4lCyyrZW9WgYAZXryOFC4tppCHw27HZR85BaeStTVteh3q6r3KCuNgvK1gaU1YWROiJQjl4qCIUf1lSyyTQSKeRogEbGQoQu7jMF556W289WovopEk7G6z9pnC542IxeFwfKfwHC31ZxWeGYMjhYsL3WI2q9HDS9acghUr2zFjZgMaGn3w+1xwkcVls2kBeRXbUuIlwiWUn4m6yNWRwxdcPy3kGXB9tTuscLsdqKn1Ut0FIuEkQuNJWG0kYIXPGxHDitc7LC4SLiuJ0szZDVh99hx84IxZakSxts4ND7mKDqetEJCfSEKdcA8FoXKYEDB+5HrKAsY5iHa7heqxkzpgu3Ivw8GEEjCz1biV2NCW1wSsY5wlP7297oBwtU4JIBDgwPyh6Q9iaQl6QKunE50s3/VhIQHTEqm10Eea3MrB3hAy2ZwW/jJgtTakeB1qdWm3WuSpR3Lgg5efgpWrZx4QLpfLoZJRNeHSejNB0BMTHS7XYS3cYYKT6rrDZUM8mcBAT1hLozBg1TZcZsgR3iIyaQ7QW3D5RxZj8bKpaGqugd/vgtNpVzEBiW0Jemci1MEeBFtegYALM9obsPrMuZg6IwC7zUKuh/GMLwOmtR1Ur1QyB7fbjjPPm4FFp05Ba1sA/honnNQrHRSuwpsFQcccFDCOfTlQ3+BVg1FnnDOHxMyjYr5Gw1DidajVxa4iF+SUaQGcTq4iB+c5+ZQDmpwKwQUtwiUYCa7T7Do6yALj29l4FH3h4imYu6AJNWSNcYqQkTCMeGnCdbBw0qk86urcWHBKM2bPbkZdvQcet0OZ1mxxCYIR4brNgXun06a8jJaWGpyybArapgaoeVCHXXifETBQKz7U7AIyJF6trXVYvHQqagsJqHYHB+c1i0tiXIIR4WrN887xLW0ulx1+srhmUefNuY0eL6dRFN5oAAwhXocF6Vm4MjlMafdh9sIGtE2pg8/Hoy+cDmFRoiXCJRgbch/JArNxAJ+8DfY6Zs1twPRZdep+3kP7eT1jOP+JhSwRzWE69TQzZzWo2SJUnItMafEWhWpAeRYT8S/yNjj+1TqlFlOn1am4mFEwSHM+vCtxeayqoFpaA2rkZSLOJVaXUC1wNWehUvEvlw319V412l5X71LHjGB9GcoWmXAfm9s8aKGCqq31qMAl30Kh9TgiXEL1oASMrC/uvHleusZmn5oZmAP3h4VadIqxxCuXVxn1nB7R2ORV93ppGfQTQfrCGwWhCmAvQ1lfNs364lShKeSRIEfiRW1F7+hevA69FUhNFZIGpk2vV7EuHl3km63FXRSqFa73Knhv06yvhiafem2E1mAoy4sLiqcHCZC7yKMsWjKqJl6CUI1w1ddiX2a4nHbU1FDb8NqUO6l3DCNebIBxfgsvT+b1udQUN5waYaTRFUE4ccjroDagRh6pTfj8Lnj8dlh4qhyde44GsrzyKrbl9lpVQurBW4BEvITqhpsAtw113yO1Dc3y4jVJ9a1exrK8SKx4QVgHuY7c03ChsXSJgJUONc02LxaRziCdSiOlttQhW5qOpdU0xvy+IyeNFCYbng7HpNxEHnXnOLDbRZYXJz2K5VU5sEZxXstB1dL2676UdALPXBAOR9DbM4A9uzuwdevb2LRxKza8uRlv0bZxwxZs3rQN27fuRMfeTgwODCMeTxQ+LRQDFi5uDmb6h+Neatocr13FgvXeLHS/AMdEz809Pgfrp8+oxbWfPAvzFjSjvtFHZrJdFdohSiacJDy9cDQaw+joOIYGBhGJRbF75z5s3LQb+zv3U1mMKIuKrS5+5HUHeSK8iTLS+pSJGAyPBPNiJzz9toUeHViyaBUWL5mP5tZGBGpq0NzSjJoaPx2zqkYonBzcNlJJXqwjjs59o3jo96/hrde7EaTX7D7qFeOJV3strrvhLMw9IF4OahxcQFL5TwS+rixC4XAY/X2DGB4exoaN29Db241IeAzj4yEkyGjq7wmhu2sIY+PD1JuHC58+QagIzWYrWpvnYGp7I2pqHeom4tqAH26PG0uWLMOM6TPQ1NSIpuZGOJ1OZTmInh0fSrxSVJYkVl37R/Hw/a/jjVe7qAxjup7jXsRLOABbVhyPGh8LYmR0DN3dXeTeddDWha6uYbz80uvoH+gm0WBXj9xzeOlfD5w2O5x07U+2F+ciZCstFssglY+B7DvaS9+Rz5Gu5bFq1TlYsHAepk9vxqzZ09HePlsJWV1tAF6fR1lvwtHhNpJMckeUQPf+ETx0n4hXRXCYeJE/P609gOvJbZy7oEXE6zjhwDkH0lW8qrcPGzdsxvrXN2Ht2j9j67ZN9A4HbU0IeDxwOWxqYKRUsKiNRhJIpoP0KkRWF3De2Zdh1eoVWL7iVCxYMBetrS1wOLmcSUA5liMcxgHxCiXQ1TmCB3/HbiOJV1DcxrLyDvGaEcB1n+KYl4jX8dLT04c31m/AE0/8EQ89/CRZXyPIpOpgMztBWlWIN5lV0LccsScu2zxPwk5lzeUdT9A5WEOw2BOYPWsGrrryapx/wdmYv2CeipFJfOxwDriNJFad5Dbed++r2PhGj4qB6Vm8DLN6EGsY57L4apxYsny6msObFyPQZpTgApIKfSgceN/59m78/n8exh13/BwPPvgUNm/cj3goSa6gnYSLrp3NCquFrp+pfMLF8Peqc1BxLp6TLc9SinzWilAwg207OvHiS89gy6Yd9DoKj9eNQKBGRKwAt41MJotEIo3x0Rg2bezEYH8YaRI0HjzRK4YSL85lYfFaukzE62iEQmFseGsLHnv0STzw4AN45un12LxhGwb7xtR9oW6Hk0TLWXDBKu+asR5xDp/VaiNhtZNbaUYwGMHQQB96949h37596Ni/GwO941T+TtpcVR8T08Qrh0QsjdGRKDa9tR/DQ1GysLO6FnhjWV7UM/trHFi6fIaI1yFoMY8UOvbux0svvYQH7nsC9//+cbz04ktUidNwWFzwOD3K0tJTZeZzZSFz2m20+RCP5NDZtQ9btmzFzq1dSKZDyGZzJF52uFwuEjweZKg+2G3MkFDFYimMDIeps+okEYuJeFUKSrzY8vKT5SXidQB2F8LhEHbt2oO77/49fvKTH2Ptc28gEbWj1t9AomVX180Il8dqJyEjETbn3RgiS/LPax/Dtm17kMub0NhUB4/HoyzKanInuePieevTKRKvaLIgXl0YI/eRrTE9XwvDDc3o/X6tyaa7uwf/7//+Epdfvgb/dfu9iIw70FjbCp/XRhW38CaDwUnJ3oALTXXzsPftIP79X3+CL3/py3j0kacQjURVg64WtDLmVpFHln53hqwwnjrKCJfAYOJFJcKlUuX6pUbk4gk8/ugz+Nd/+QHu/H93Ix11w2m2wWapgtk26KepLH76vQ67BVa4sPvtfvzgh/+Bb3z9n7D2+VdV7K+aUGJF/6gJO42gXITxRht9Dixb0V61bmMykUTn/m789pcP4/77n8Crr6zH8OA43I5aFdPiUcNqgusEB/czGWBoYBide4bQ27+P+rcMGuob4Pf7Cu80LsptTGcRj6YwOhzF1s3dGB9PICtuY+WgOhftaVUSIZdo67btuOee3+Fnt96FZ//0GkJjGXic9ca2tI4Dm8UOL12HeDiNJx/7A+6661d49LHHsXvXXnVXQVVhkKogMS+DkCCLa/u2Hfj1r36Df/rOdzE6Oga/2wW3k7PjBcZEtd3lt6K2ZgrefH0bfviDW3HXnb9Fd3cfksmkYdypasFw4lWtptfatS/hRz+6Fb+6+x40BubCU+NS8zcJ74RdJa+rEZExM+74v3fje9/9d2x4a7NKJ6kG1Mwehed6Rmq3jmFDgV3F3/76Pvz0ttuw7pW3YM3XqORNlTld3Z7iMTGbLHSdnEDajqefWYcf/Nt/49GHn0EwaMRAfqFHJ9E2UpqI8cSrShosuzh9fQN48P7Hceed9+DN9TsQC+dht3lEtI4Ti9kCu9WFWCiBF1/YgF/c8T+4556H1Q3qnNhpJFizWLg49skdmxE0TCwvHaKEq3cAf/7jWtzx81/h9dc2Ipu0qyxz4cTg0Vef24VUIoO1z7+BX/z3b/HYY48jOD6usvP1jhbG43tDOXWENquZLE5e+kz/6iXipUP4puo//uE53H77XVj32gZ4nTVkcUlg/v3g89hQSyK2a8tO/M1Xv4Z1695UuWB6D+KztaU2s1ndScEL06iZhcXyqkC4rhnL4j8MbktPPP4H/Pae32HL5s1oDDQp90d4/1gdvLqOH6nxWtx44zfx3HOvGCKIzy4ih0DZ6mLx4kcjxL4MKV5G1S4ezl/7/Iu4997fYOvm7XDZakS4JhFuz7w0vsPtwMhIFHffdR+ee/Zl3VtfjBIwUjCeVohvUFfipfOfZSzxMrBwsau4besO/OIXd2DjW9uRipvIVXQVjgqTBQezbXaLypF7bd1bePTRp/HmmxsLR3UMidVEwJ5jX/q3u4xoeTEGUzDOAN+7twP33HMvnn7yT4iF8hKcLyJaEN+OaCSmLN0HH3gYfb39arpsPcJGlvaEn2vWF+/UezMxoHhxkRhLvQYHRvCHp/+M/7j1x7ChATarp3BEKCY1Hh+6OzvxyKMP4/EnnlYpFHxjs65hAeOlTQsv9YwhY17GKBoNno/rof95Brf/6D74zLOo1zTuVDaViMfRgIGuCP7t376PjRs2IRLllY30jRGC9Ywx3UYD8fJL6/DCKy+hf6wfLp9TuTR6gePcHOw+fNP26wWL2QpT3oXRHjP+8ye/wtvbd+vWfWS49hyoQzo3Io0nXlQuXCY6LxfVQHp7+/Hwww9h48a3YHfYYLVxrKLwhgqCl/lPJbMIR1MIRsdp66etp7D1HrH1IBSbODZAWwiRWBqZVE6JW8VB19tqtcNqceH5ta/g+edfQmdnd+GgPlHaVYH16EQxzHxerFY8ksIrLS9fMRMNjfqdz4sbMQeLn3j0j7j3t79HT+cgvO6awtHywxrDC9SmMhnaYsjnstS4HfD4PWidVoO2abVom1qPKdOaMG1Gs9qmTm9Wr9umNqC5tQ7NLbWoqw/A4fTSX7Qil0nT3wojQ6Kdz/FomFm7P7MCUCkGFhNC0TCSyTCamuoxe/YsXS3swXcL8PJnoWCcrMde9HWHkEimK+YanwyGWbeRA6mcfNfU6sXNn70A8xe1kIDpc93GdCqNjr2duPH6W7BvV7/qKW3O8udz8aXO57NKuDIpExLIwOYYR62vDu3T5mPJivlYfeYKTJvWBp/Pr5bld7mc1IFwnM6srEnOVeNZXpPJhJq2Z/u2XXhz/WZs3boD+7o2I56ww5z2wGayUs+ap1LT5pyvFG95OLgX117/Mfzt3/4tFi6aV9hb2XAbObhi9igefuB1rH+lE8HxOMgrVuWqR0S8KpDenj5yFx/HP/7jP5KSkQjYfRXReJOxLKLJAWTzCTT65+Pyq87E+Rd9AAsWzEdjYyNZvS4SKnKxCkmQh26MVlQH418sguk0WW8k1vFYHPv378fmTdux9vl1ePXlV9HZsxNOzITP74LNXhkRjiBZLrPmTsF1n/wQvv6NL2lpBxXOYeLVOYrHHnwDb7zaibGxqAocFZqQ7jCe2+hjt7FdCZce3Ua2Sl55ZT3+5V9vQ3QsC5vVWdYseq7YGXLpxqNdasrks89djU/eeA0+efPHcdkV5+PUJYswZUobAgG/Wl6MXSmeI1+bJ39ioVhNwJT7VdjHx3klHxY7ts68Xi/qG+oxo306ltDfPG3lUsydNwdZckmHRvchFovBanKWfYVnK513KDqITC6CxYsXk+tbq35LpXOo27hzRx96u4JU19htLLxBh4h4VRj793Xi6aeexf33PwWfK0CNpXypEYkUWVqJGEyWKM46+3Ss+dCl+PBHLscFF5+LpcsXobWtedKWE+PPs3vp83nR3NyIGTOmYebMmZg+ow219V6yGlLo5YVxs+SqlnH5MhbPdCqJcCiGUCSNM848TYlvuc7neDlSvHq6SbwSIl6VgQHEi92n559fi4cefBx9PeNwO8nSUOdeelLpGJkZZjQ01eK0VXPx2c9+Bh/56BVYsuwU1NXVTopgHQ0OIjscdjSQJbZg4VzMnTsXVpsLwUgMqUwciXiQvpssOM62LAMWk12JwI49O7HmiotQWxcgi9NaOFqZvMPyIvHi5f/1LF46PnXjMTIyihdeeIG2taj11ZBwlaN48uSqpZHKj2P2nFp8/nMfx+3/9TOyui4nS6tFiVYpYZds9pxZuOWrN+GnP/02rv7YxXD6EsjmY8iRS1kO2Pqy2rNkgfVj7drnMTw0XDgilBLDiZdeg4/MW29uxJ49g2RVsHCVx+LK5jIYGt+JSy+9GN/++/+Fz3/xRrJiG0hEyltVWDQXLpyHb3zrK/jxj2/DtJm1KvbEy3eVA7vVC2uuEd/73vewbfvWwl6hlBjT8tKZgPFoUCKRwKOPPoQtmzbB7/IXjpQOFv1kKkIW1xD++it/jS988bNYvXqlikGVW7gYdlF5MIBdyXPPOQt/9//9Hc69cCW5kr1IRDIl77TM5G9xPDIYHMfePR1kfY0UjgilwnDiVfmRrXeSyWSwZ3cH9eA7MTYahN1mLxwpDZxmkkiFUNvoxPU3fBw33HAdTl+5XMVyKg12pevq63DRhRfixhuvx8WXXohIIoNENKMy/UsGVTQzz4GPRrzywiZs27qzcEAoFYa0vPTmOcbjSTzyyHMY6o9Rb84jV4UDJUBZXOkoahucuPDiM/GVr3wFpy45RY0iVjKB2hpcdvll+BxZiMtXL0Y6y/liZIGVcNYHvgvAbW/Cqy+/gQ1vbUS1LJ1WKRhOvPQmXOwyBsfD+NlP70dfZxxOawldRvrubDaFrCmISy47F7fc8lXMmt1e8qD8yeL1enDeeavwwx9+Ha0za5BDWlmxpYJHRV1eK7r6d2HXnu3iOpYYQ7qNenIdY7E4Ors6yXLYAauDLC9r6Yokm89gOLQLf3H1lfjEtddh9pyZhSP6we12qUTZ2277HuYsCiCWGimp9cUDKyaTG/0DQezt2FfYK5QCcRvLTDAYxOZN25BOu0h0bSVT3lQ6jVg6Ra7XGnzs6qtw6qmn6MbiOhQO5HOSKMfobrrpJixdMQ+heF/haGlwoAb7dw3gzfUGmC5aR4jbWGa6u7pw//2/hyXvBK90XQo4sJ1J5eGyeHH11Vdj2bIl6tYfvcJB/JoaPy697BKcf8F5aGhsVNPssEteCpwOJ/p6e7BhwxsIBUPqnk2h+BjSbdQLPDd9J4nXs8/+ETY19F4ayyeVjsPjtuLsM1bhvHPPQn19XeGIvmlvn44LL7wQq884g8RrHLkSiZfNwfc7jqJj3250d/eqbHah+BjSbdSLgIVDEYyOjNEzni+Kb2DW9hcTjgdl8mG0L/Lj69++ES1tjbp0F4/Gaacvw5oPnwe3jxeM5fyv4gsYl5vJZEUkksLu3R0lHTSoZsRtLCPBUBDDw3xrSenkNhJJo75uBlavPA/LVyzR1YR6x4PH48aK5cvxuc99CbFMEsl0qdIXfAgGbdi8eYuyqIXiY0y3USem17693di0kUeoWmkrwU3GpOyp3CCWnT6TrJNL1HQ0lT4bwonCv4en6Fmzhn6fI4pcLskZIUXHYbEhHU1hy4ZdCAUj5Drqd557vWA8t1FHjXHPri5sfnMP3HY/6W1xz5sbcDqRhdftw6JF81V6gVFxk/U1f8FcXHrpRfDWeMn6ShaOFA+b1YJUMortb29SFnU2I+JVbAwZ89KD6cXT3/R096Nrfze8juLPT5XP5xBNBLFw4WIsPmUJAoHKmRN/suHRR/591117PRqbA+oOgmJjsZqQzsXRN9iB0dERlYoiFBfDiNcBz8DE855XvnzxkHowOoy0OQSLrfjB+jyyiGY7ccmaVTh91ZLCXuPCLjHnfrW0emCxZJAtQeIqW8/sLfb2DCARTxT2CsXCeDEvVUdLEOR4n0RjMSSSIRKtuMrSLhWz5sykBt1ceGVc2PqqrQ3gvHMuwvT2BQhGShG4dyCTqcX+fT2qfIXiYkC3UQ92F9+MHSfXkXvn4gttOp0DGwKrV12IqVOmq1lKqwGeyHDhogWYMrUO2XyosLeYmJHP2TA2PoZ0Sm7SLjYGDNgXtgqH87vCIY6LuLQdRSSbSyFHFt65556N5uamosfXKgm+X7O1laf2KX7ci2eZQM6qyjaR5FHOyvcA9IwBLS99MNA/jPEx7p150dXikkcaFnsEpy5dgJpA6Sc6LCctLc1oamqCw+os+nxfvIy+hZpUT9cgImGeploy7YuJiFeZ0CwvdhtL4cJlYTan0UJWF9+HV0047HY01U1HY+0sJBPZolpDPOOsg1rUnrd7MDYSQkbSJYqKscSLvCG9eESRaFRNXmcpRXIqwQvBTpvRBren+G5qJeFwOjB34VQsWDoD44kkijnoqNZLseTR0dODYIQTZMXyKiZieZWJRCKObCrNi9kX9hQHtjTyef4OG+x2hxqFqyY4vseTFvprvCRcHGMsnnpxqoTZnEMmO0jCFZOYV5ExZk3WgfXFi6fmc+TOFflkOc7DK003BmaQ9WWs+xiPF4fDoSYtBIqcOEpFqVn+cRIudhlFvIqJ8cSLK1DhaSXDGe+l6JlZvOxWN6a2zirZlDuVhiZeDnrGAyRFvuYH4hZs8RaeCkVB3MYykePgC9XuYgstixfnO9U1aEuYVVOaxAQ2uw1OJ1udpcmrO4ioVzER8SoTPOsAC0uxb8hW7Yc2XuVZHzbp5GMxW8jq5Kou9xsaCRGvMsGLlmpWUHF7Z17hht3TaDSprL1qdGX49ytLt0Qju0JpEPEqE2rVGRaWwutiwRZXIpPG/q6Rqs074skBkyn+7ZxTV0rrszot3VIh4lUmOGWBLa+ii5fVhFQmgd6BbmRzPD1x9ZleqVRKLezLN04XnQOXlzon0a6iIuJVJkycb6XEq7hiwhae2ZIg16mLXKfqnFs9mUwipqaoKb7lpZUmNyv+HlGvYiLiVSbsVgdZRVZkS2AJcRPiuE8wGKrK+dWTqaSaxQMobqoIX+O8Sqr3wWyyiXQVGRGvMuHxeGBz2JFBaW4h4dHNnp5exGNsgVQPPGNt175+dO7qg8/mIEEpnqTwYEg+Z0K9Zyqcdq9mXQtFw3hXt/iGzKRQW1sDj9dBp1sKS4gsvKwTA/2DSCSqTbyS6O7Zj86uPXA7yRoqYiCKU1+yGRNmzpqGmhqfyqsTiodc3TLR2FSPmgAHkNmdKS7swiDjxcbX38b4WCkm5ascguMh9A92YyzUD6u9uNNt81TTaTK/Zi9oRaCOk4IlNaOYiHiViaaWBgRqOeu7+GJiNdthzThx36//gM6OPhWbqRb27evCwMAYYLIWPX6eo/+ylixa2hrIqnZX3U3wpUaubpngmJfTWYKhe4JXtrG68hiIbcbQWC/iVbQ4xN69Hejv4/nkG7QdRSVHll0WPq8ftiq9Cb6UiHiVCZfTBYfdC+Ttagn+YsOxnmzOgv37uzA4OFTYa1zYugyHo3j22T9i7+634XeVYh6zFLmKY5gytQUuNYuFUEyMJ146GZ/21/jgdtdRK/Mim+VhqsKBIsHzq7ttDXjm6fVY//q2wl7jkk5nsHv3HuzavQ/hUBh2WyniT1lYrWlMn95WmIJHKCaGEy+daBe5jW40NDShxt+IdJKzvYqrXiaTGV5nAK+8/AbeeHMDolFjL83FeV2PPfokhgcjsFncRQ3UM2w9m2GDx1mHpuamqlmhqZyI21hGZs5owcKFMxBN8EozhZ1FghuvzWFRbk1f727s2dNROGI8+B5Odo3/6/Y7MNgzDhe750Umk8nDavZgevNi+Dw1dJ2rc+60UiLiVUbmL5qNlWcuQAr9ZHeV5qZpJ1rxxssdeOj+pwp7jMfw0DBeeP5lJJMJNVihTQdUXOKZDGx+F1afdwrqGwLkPop4FRsDipdeHEegNhBAS3M9CRfnehU/aM+43A4MDnfhtfUvYtvWHYa7XYh/z+Ytm/GT2/4POXE+2G2liT3l8zH4fMAppyyAnVzGYrupglheZYXXUGxq4iH84i7JdSgWmxm5rAl7dvTinrsfVkmrRlrlZu+efVj7/GvYsqUbVpMLFnMJLCAuunwCfr8ZCxbOg80mVlcpEPEqIxy0b5vShpkz5yDNt5aUSEQcVh/GBtO4/74nsWXzNkQixV9NuhSEQmG89PIr+POfX4DT3kDWT2ky3LOZHBx2J1pamjBzdru4jCXCeOKlM3N92tTp+Murr0Mym0UqXZopa9j6ylsz6B3uxQMPPIx9HfuRyeh7upxsJouNGzfh6aeewsY316Pe51HTAZWCRDyDxvqpWLxoBRob6iWzvkTIVS4zdXW1WPWBZbA7hulV8e9znMBhc8BtdeFXv74TTzz5JDo7uwtH9AcLV3dPL2699Ud49o+vwu+eWtJOLJ4PYcbcZpy+aqnuOk89Yyjx4ulOijnlSTHw+b2YP38OuRom5MltLFXsizPurRYbrLl6/Prue/Dggw9ieHikcFQ/sMXY1zuAH//oDmxe34ds0lXS9SnVHF75MNqm1mLevDmFvUIpEMurzNhsNpXUeOkll8MbqEEyxWsLlgZOXHU5atCzbxwP3vcY7r33XhU30ksAn/O59nV00Xk/hMceX4twKAWH3VWykT7uZ1LxLGr9jWifMRNtbS2FI0IpEPGqADhwf+0nrkdjcwDJTGkz3zkHyu2ow9aNe/HLO3+Lxx9/DKOjY2rywkqGUyJ27+rAo4/8Ab/85f3oHxil38JrNJauSvPCwbF4EIsXL8Epi06F11f8ZFjhIMYUL53FHex2O1actgytbV6yxDKFZbpKB89z5XHVY8+OQXztb/4WL7/8CkbIhazU1YbYVezs7MJvf3M/fvJ/7sTOnb3wuxwlun/xIPl8BrF8Fy6+fBVOW3lqYa9QKgwnXnqMl/LoVH1DLS6/9MOYPW8xxiKlC9xPYLGSgLlrYM7U4/Of+zx+8+t70NPdWzhaObBw8ejoN7/5TfzstjsQHEmgMeCFpUQjixNwrGuik5kzV1zGciBuY4XAArbqA6dj7txmahQjKp5SavgcrBYH8ik/7rzzV/jJT27Diy+8glQypRpruRkaHMYjDz+Br33ta3jztZ0w551wOi0lFy4mlYkjhTF88YtfwoIFC2XW1DIg4lVBzJ49E6edthQzZ01HOJ5CrgyCwUF8p92Pvq4xPPnE87j9v+7Gnb/4HXbt3Fu2SQxDwRBefWU97rrrN7jj5z/Hulc2IxkDXA4Xudmlr8I8g0Qmk4bZmsOVV34UU6ZMKRwRSonF4XB8p/AcLfVnFZ7pD27nvOCBz+/A0hUzyA3zwu1xwG63FpIVK9+h5JlVeaBvcGAMr7+xAV6nq2wJjzarG8HxKHa+vRdvb+1AJq9l4fNsCTxCyrfAFHMxC463hcMRdO7vwosvvoQH7nsCDz/4NDZv3gSvoxlWq6Oo338s0ukEHC4Tlq84FZ/57M2oq6sr27kcL9lsDqlUhjqCBJVpH3VOQSQSaVBfpVtEvCoMt8eNWGwczz77GGwmH527pWwNw2a1g6QKo0Pj+NPaR9Gxt4dcyDTcbidcLre6onxuE9v7hVM0eBLBBFl4PKUNZ8z/z+8ewU9/dhteeO4NJKJ21Pr5tp/ytThelzGeHsW8hW34+29/G/Pmz1FCXukcKl67d5B49YaQJPGii1l4h/4Q8aow2Ppi0YhGUtiwZQ9M9LusZYyn8LWzOaxwu2rR1RPBiy+vxXPPPY29u3tUwNpqtcBB5/x+J99j4RobG8fuXXvw1FN/wn/f/nPc+h8/wrrX9iOfssHn9tN3FNfaOx7i4Qzq6xpwwcXn4YZPXUPl5Sz7OR0PE+IVDsaxi8WrJ4h4nMWr8AYdIuJVYXBD4ClV3G4PHnv8T8glcyRe1GjVbygD9LV8TmaTRQVIzXkTWUB5dO4dwutvrsUzf3gJr7+2kayyDowMj1IjSZPlGFdBfo7ZcZlMuL4c9GfLKhKJKaEaGx3D7t0dePnFdXjg/sfxs//8HR586Pd4/rl12PX2EDKJPGxmKkOrjf5O+SzQQwkn+nDWectx/Sc/jnnzZutCuJh3iFe3/sXL5Pf7qdlrLJ37rcIz/TAxCsZWgM1mQds0Pz716XPJnG9BfaMPHhIwvvVGT6XE8Z7+/gF8959uxZ+e+RPC43G4nP7C0fLDc+6zy5HBGAmUDTW+WrS0NKKxrQ4trW5lhdntHnqsgcPuht1iI/HjBUBySGZT1Iii9Plx+p1JBMmNGewPU2MaQXfPMP29IAmCDTYLdT5kaVVKsbEQR+NxTGv349OfuQ6f/NT16r5UPcBtJJkk4Qon0NM5iscfehPrX+3E6GhUDdlVwkjyyWBA8aoh8TpH1+LFpFLkNr61mQTsu3h93Q6yeLwlT8I8HnjkLUXWYYLON6VuLB/jncjDSY9u2uywgaxfuv5Z5JAx8ewVSRKoCD1mqVgcdMwHm8lNrqlV5ZtVmjHDVSydymIkHMZf/dU1uPHmv8SK05YWjlY+RhWv8kU+i4S+JOrocNb9qg+chgsvuBQtbe0IRitzrUV2Zx0uC2pqXGisqaNtNhpq5qDBPxX1ZJHVej3wutkNtsFHHUmd14t6fz0db6f3zqFtGuprAvD77bDaKk+4GJ61IkWWZmNtCz54yUU4dcmiwhGhnBhOvIzGtdd/DOdfcAr1jv1q0js9oGJkJGpsRbEgWR0WbbPTRvs4DqZieDroadgoSWUjMHsH8a+3/jVWrlpMv0EmG6wERLwqnMamelx51UdxzcevxFh0H7nH+po0kC2pQze9mcax5BgCDQ7ceONNOPe8M1BXH1DiLJQfEa8Kh3v5ZcuW4mNXX4Uzz16JZHYM6Wz1LNdfTmKJJLx+H844cxWuu+4TaG1tUQm6QmUg4qUDamsDWL36A7j5ppvQ3BZADlkSMH1P21zRkKuYSeUQjWewYOEpuOqqK7F8xVLY7SJclYSIl05obGrAFWsuw19c+XHU1NUhkUqqEVZh8uHrGgvHEfDU4qLzz8cVV1wirmIFIuKlE7jx+MiF+fItn8Way89HgKyxsYixl+wvB9pN1ylE8h345t9/AtfduAZ2h1hclYjxxMvAHSSP0jU01OHmz1yLK6/8IAIBD0ZCcbHAJgkWrkQqipxtDN/7/j9hzYcuVetqitVVmRhLvFQdM3ZF41ttFi6ah6uvWYOr/uJSuN12RBIppLP6SKOoVDgNJZYIoaHFhU9/5gZcc81for19hi5uuq5WDCVeLFvV0EfyCOTKVctx401Xkwt5Ljw+twrgpyt83vlKROVxpbKIJ+JobPbjsivOx1e+8hVMnzFNJQoLlYvEvHQKWwQrVpyK//3vf4dLLl4Jt8+JZJqD+DIKebzwbTEZEvxoLAOTI48rr/4wvvGNb6BtSqu6EVyobES8dIzZYkZTUyP+5Qd/j0/e8FE0tdgxFukqHBXei2Q6g9FIBG1Ta/DP//x3+OIXb0ZzS1PhqFDpiHjpHIvVgsbGenIhP45bbvkrnH3OaoyEOtTSYDq937YkxBJjsDpjuOzS1fju97+BNR+6WC2iIRaXfhDxMgAcxOcVbNZ8+HJ86sYbcPkVFyKDcYSjERXPEQ6Sy/LUNiNoavVjzZqL8YUv3IBLLjsfU6a2wiZJqLrCeOJVpaPaPJw/ffpUapCX4ctf/jLOPm8FGlvqkDdlkEpr889XMzyXWDyZQiw5jikz6nDFhz6Im26+EZddcTECAb9KQxH0hZSYwagJ1OCc887CbT/9KW644aOYNtOLNFlhmWxK5YNVoyuZy/PtVGnEabN5Yvj8Fz+Nv/naLTjzrFWSw6VjDCdeqipWeayH4zYtLU0qG//7//ufcdVVH8bg2E4ER2PIpKsrH4zzt0KRQTi9UXzyuivwyMOP4LrrrqXr01x4h6BXxPIyKCxgdXUBNaHhX33pC/jhj36ABYtnIpUfRjgyjKyBRYytS54rfyTUh5FwB848Zzm+851/wF9/9bNYfOoi1NTUSGDeABhuAQ5/jRNLlk3X7QIckwm7RLy6TUNjA2bOmommpno0t9YiGk2jp3eQXKlxIONQAf+yLfAxiXAwPpFKIJoM0e+Jk2itxGVXXICPXX0lLr7oIrS3T1dT2lSjq3jkAhy9BliAw2DiZSHxcol4HQFfF5/PS9dlERYsWACrw414KgaXO4tU1IJUNop0JkPXUFvpR09tW91InabfkQlT48zDW+PGjNmNWLZiLj7z6Ztw3bWfwIoVy+HxegqfqE6MKF7iNlYZM9qn4atfvQm//tVt+Pa3/wErz1oMXx1VbMQRJxHgwH42l63o4D6fF59fNpdBhkQ3k8giaxqD1WPFORecje/987dx55134cMfuUJNJSRBeWNiPLcxQG7jUrG8joVyJ11OzCQhu+iD5+Kss87E1KltiMaGsGPXekTiZIUlLLCYaLNVVv/G5cyDDuORKILRAdhdSaxYuRyf/fzN+NrXv4Br/nINFiycCxf9PhGtgxjR8jLU0mcsVFOnB3D9jWdh3gJ9L31WKvj6RUgIRoZH0NnZhR07dmD79g5sfmsndu7ajvGxMXhsLbA5edHXwodKTDaTRyyVQCIdphOOUFm34KyzF+P0lfOxcNEczJu7ANOmt6l1FFm0Jha5FTSMuvSZ4cRr2owArvuUiNfJkElnEAqF0NnVg11vd2Dbts14683N2LCuA0lyzax2E8yW0l1HbaHXGLmGZirXZsxb2IbmZj8CNe04/fSFWLhwFlrbWlBTw0mmMnp4NIwqXoZzG2vIbTxV3MaTgm/0drldKgdq/oI5WLx4ET1vw1hwDHt27aZ38HJmpREJzojP5LKobawh0ZqHyy8/Dx+/Zg3WrLkCl11+LpYsWahuona5XGJpHQcSsBeqBiuJVFNzIy68+Bx88399Ab7mFLKmhLJwS0EqnUY8k8R1134It//nP+If/uEWXHjReZg1u12NnIqlJYh4CcfE6XSgvb0dN1x/E/z1LWrW1mLDbkw+lyarKouPXnUF2mdNJ4tPZjQVDkfESzgmPGLHM4q2tLTAYbeQsBR/lopcJg+nzYO57fNRFwgUEksLBwWhgIiX8J6wcCgBUbHD4ruNHL80wQI73PTdUkWFd0dqhvDekJjk8zlNVUoA61U6k8bIaBCZTLZUXyvoDOOJl/gXkw5rB2fdaxpS/OvLo8PpfAoD4X41lY12BoJwOIa0vES+Jps8crlc6SwgKkCTKUlPhug7+Z5LbbcgHIqhxEtEqzjw6F88Fkc2yypS/CrDgwSaAc2DA/ydol7COzGk5SVMLpzgGApFkUmziJS2i+Csf71mgAvFRcRLOCYsHBw0D46FkU/nYClhleHvjsUSyNL3C8KRiHgJx4QFhGclHR8Pw5TOwlpCy4vjbKFQWM01JghHYizx4nYlga9JRbO8MhgdCpP7mIVF3eReGvi7I2F2V0W8hHdiKPE6GJERBZs06KJmUll0dQSRTGZLOF20CfmchdzGuFqSXxCORNxG4Zjk6b9MNoOx8Cgy+VRhho5SYKZvtiGeSCAn4iW8CyJewnvC6x4m88PIm9IlzAEm8crbkUql1fQ4wuTCxTix6RURL+GYcNxJy7caI+FKqRys0sDiZUE6naZHEa/JRBUhbXqfJlvES3hPNAErVPaS1nczsuSy8gpBwiRiMsNc8rKcfES8hAqFW5ZJuawcdxMmB76SuWzOEFdUxEs4JlqqRDkC5ib6blNhVgkRr0mDLqVa1s4A8iXiJRwT7qWTiWQZBITFy4I4Z9jLaOOkwsm/SrvEbawwdF4glQbnWHGuVVnEK2dBcDyCdEqSVCcTvsGe/9N7UzGceIl2TS58X2HZxIvcxvHxkEqXECYHLkW2pg3gNYrbKBwbnoQwHk+UXLwsJF62nAmhsShSSU6XMEBrqwToMkrMq5IR82vS4OlwtJhXYUeJ4KF8vgk8OBZRlpeI1+ShriVZtXrHUOLFxaHzvLuKg4O7yVSKKjyvk1i66sLz2PNasqPDERJPcRsnE6Vdhed6xjjidaA0RL0mExavNMec8nZ6VULxol6IBWyoL4REXCyvycQo19I44nUIyvoSE2xSyLN48Wym5MSVsmPg4sub8xiMjCORLv5Ct9WEUZqG4cRLlQv32hPPDWEgl48c9dJqMkDlNpaw1lMZms05ZPM9ZCnEpBgnEQv540bQL8OIl7ZoA1V4CxXMhHIZoYTKDLsYnCSaV1WldBeUy1CVI6L03Wz5iXpNBnxNzdZCG9E5hhAvTbjox6jHd5aKhEtOHhavXI4z3Pm6lrjGG6CBVQIH6j89cidg5pEQaid6bxa6F6/DxIobWiEBjwtMKzRN2ISTRVuzsRxK8m4dkXCSUGPgjkiboYMbh/agZwzjNjIqPpPOqtsfCspFcKEVngonDld4lEe8hMlhQqdYuLIZHj3OHphmSM9NwzjiRW2LxStFBTMhYKqnodIR8Tp5eBbTRJzzvLiqlEfAOFWjPDNb6B+VFkEbZ9VnyCvhthGPpQwxO61hxIvHFzk0E49kEIsl1fB+riBgwsnDoqHubcyVT7w4w55XMBJOBr5HVHP9uSwTibQmXhxeUcWp3/ZhKMuLra1oJI1wKKaysnmUjHsc4eThG7OjkThZtWUWL1n+7KTh/ps78lQyQ2WZVG1EiRcLl46bh3HEi2A/PhnPIDgeQ4xcnXQ6p8RLrK+ThC5bhtyMSCRBz1m4yiRe6ZS4jSeNVv9ZrNjqCgbjiIZJvDIkXjpvFoYSL76dxGTJo693DCEqpFQqowqNC08E7MThK8YJqtFIDJaciSpLecRLxbyyYnmdDNx5s0cyEevi+dHicV6RidoEHddzqzCYeHFaRB69PeMYG4mqwuJC06yvwpuE44cuGk8EGAnHYCXLq1yVheOX7L4KJ4bqsOl/vnbJRAbjYzH0dI7SLv0H6xljiRcZBqxR/d0RDPaHyPqKqbmgDlpf2vuE44P7ZrZ6wnQdLXRty5V3xfEucRtPHK7vPKqYog48Gk1ieCiM7s5xVa5sRGu2l34xlHgxXBzhYIqsrzFVWPFY+oD1pR0Vjhu6XBzkDQ5FyR1ny7awv8TwSKOW5S8cLxOhEu64efBqfCyKgd4ghgeiStCUcOm8ORhOvNg2sDlM6OocUVskkkSSGiAXogTvTwyu4IlYBsO9EXVhy2V58WyuWpa/cDxMeBkc6+K4b4ysrv6+cfR0jarOnAe2+LjeW4LhxIsbmdVmxv5dQezaNkzu4zhiJGBsQaj16rjQRMCOm2QujaFUTOsVyqNdRNm+WLdwR80WazyaxthoDPt2D2N/xwjMNhO0VRv13waMJ14M13VzDr29I9i2pQdjYzHEYinl+0sPfmI4HTY013qoNdCLMtV3l9MJu50nQxSOB024smoSx1Aojv37hpRwjY8mqG1w780deOHNOsaY4kVYqIcZ7A9j68ZedO4fViMt8cNyvwpvFI4Kzz5QV+fD0uWzkCb1ypRa+AtlVFsXgNdHAiq8J1y3tThXBuFQAkODIWzb1Esu45haxk65lAawuhjDihenTcTIZN6/dwwb1u/HQH9QFSYHLzMZEbDjgWNcjU21+MDZpyJrjiFLLmSp4KBymhrh1KntmDKlDV6viNd7MRGg5/t7Oc41MhzBzu192L1jQHkfPOjCdd4o9d6w4sXYnGZEY3G8/Pwe7Hq7n3qh8GEB/InApnB0amsDOO30JQjUpsgSSyCXL/6oH99gn0ilEMtk8OEPfQwzZ86CzWYrHBXeDa7Lyl1UyahJEqsoujtHse7F3RgeDtMx6rBVfTdOhbc4HI7vFJ6jpf6swjNjkSZLa6AviLp6L/w1LmoIFlisZuUWsXWhbYU3C4dhd9jJbatFLJLBrj2bMT46DpvFQ9euOBeMG1ckFkEwFkVNTT2+9/1vYN782bDbRbyOxoRw8VQ3WhZ9HPs6hvHqizuxfdOg6qyVs8jiVfiMETD5/f4Dv2fp3G8VnhkM/oV5E05d1oYzzplLj9PR0OSFz+eEw26FlcRsojGWKx2gkuEk0T179uGZZ57B/fc9iHWvvq7c8qJAZbVg4WKcf/6FOOfcs3DhRaupnLyqoxHeCVtU6vYfdhVZuIIx7Nk5gPWvdmDdC3vJ80gim9e8DLa8jETViBcXsNdrx/xFrVi5eiYWL52GhgYvvCRgTqdNCZilMP+9CNg74Z69q6sb69atw8aNGxAORxCLxui6vr8gME9lxNfbYrHA4XTA7/dh/rwFWL58BebPn6P2SXkcjqZBBTcxk1VpQEq4xhPYu2cAb722D5ve6EY/eRsmq1Z2RhMupjrEi+Dqn0lrAjZrbiNWnjEHC09pRVOLnxqMEy63ndxJssKUO8nvFlfyaCSTSYyMjCMUDFHjSavG8X7g622xWFVQvr6hDi6XUwTrKGguomZxcXyLZ4rgOC7fy9u5fwRvvb4PWzf2YLAvDJMtD3UDNm+FzxuJqhEvhptDNpNXDaOxyYdL1pyCeQtb0dIaQKDWBbfHobmRLGBkhXGjkkYkVALKuqWWqrmJ2ogip/6Egwl1G9z+fSN4/eXd2L5pANFoAma2uJTQGVO4mKoSrwPwL86bSKSsOPPcWVi+cjraZzWRgLmp92c30go7iZgW1NcETDRMKAcsWNqmpUGwtcUBeE6F4Gmf+nrHsWNrL157uUPlNabJjcxxDn1BuIxMdYoXoSpEFvB4nJg6I4CFi5uxaPFUtLTVqhFJN7mRLGIHY2EiYELp4XrKs6ByginHtjhrPhwma2swjL27B/D2ln507BlBKBRFMsWjiprQGTHGdSRVK14TpJM5OF1W1Dd40dpai9nzGzBjZoOKhQUCHiViSsAmXEgRMKFEKCEi64mTqpPJNCIhzUXkG6z37R5Rk24O9IVIuJIwmdk9ZNHSxKsaqHrxYrisMykq+Awwtd2LaTMaMGVqrRKwOjUi6YDNWkinEPESioxWxbSFM3iUnEcS2UUcIWuL3UQWr+59QaTSZGnxvYr0AS0oT/9Vh24pRLwOgSsNB/ST8RxcHiuaWj1onVJDrmQADoe1MAop6JmKLMEjTkq9ZCufWibPRTcyFMHgQBhDfRFEgiltbjXaeHYIFjgWrGqxtg5FxOvd4PuPqe5wJcrTv3xLn6obXEn4eOGfAxeuADmWhWca7xoj4w8duX/i774rR3zP0d/4Tt7t+ycLOg9t2u3ifs3kU4hdlvukC+WoYqlmwMyPaju4n89RGft0PEcWFltXE7f4qI3eV42iNYGI1zHgeqEqSVZ7fqDGlZOJUyh34yPUKUy0Nh2gna96WgmXrwCdyaGipT1o8CH+x6yl92hyVaiLXC/Vq+pFxEs4KQ5rZHqhIk/6eE/qEOESFHLDmHBSqM5fbxv9U3lbwQV8z017v3AQES9BEHSJiJcgCLpExEsQBF0i4iUIgi4R8RIEQZeIeAmCoEtEvARB0CUiXoIg6BIRL0EQdImIlyAIukTESxAEXSLiJQiCLhHxEgRBl4h4CYKgS0S8BEHQJSJegiDoEhEvQRB0iYiXIAi6RMRLEARdIuIlCIIuEfESBEGXiHgJgqBLRLwEQdAlIl6CIOgSES9BEHSJiJcgCLpExEsQBF0i4iUIgi4R8RIEQZeIeAmCoEtEvARB0CUiXoIg6BIRL0EQdImIlyAIukTESxAEXSLiJQiCLhHxEgRBl4h4CYKgS0S8BEHQJSJegiDoEhEvQRB0iYiXIAi6RMRLEAQdAvz/QoA60ilVxgEAAAAASUVORK5CYII=;" vertex="1" parent="1">
          <mxGeometry x="476.5" y="1018" width="91.82" height="90" as="geometry" />
        </mxCell>
        <mxCell id="LPtJNR68yc8nHozL9RRt-11" value="" style="endArrow=classic;startArrow=classic;html=1;rounded=0;" edge="1" parent="1">
          <mxGeometry width="50" height="50" relative="1" as="geometry">
            <mxPoint x="576" y="380" as="sourcePoint" />
            <mxPoint x="756" y="380" as="targetPoint" />
          </mxGeometry>
        </mxCell>
        <mxCell id="LPtJNR68yc8nHozL9RRt-12" value="Sync Boxes" style="text;html=1;strokeColor=none;fillColor=none;align=center;verticalAlign=middle;whiteSpace=wrap;rounded=0;" vertex="1" parent="1">
          <mxGeometry x="626" y="343" width="80" height="30" as="geometry" />
        </mxCell>
        <mxCell id="LPtJNR68yc8nHozL9RRt-13" value="&lt;h1&gt;Boxbosses Owner&lt;/h1&gt;&lt;div&gt;&lt;div&gt;&lt;ul&gt;&lt;li&gt;List of owner&#39;s centers&lt;/li&gt;&lt;li&gt;Opening of all doors of all centers&lt;/li&gt;&lt;li&gt;Sending and handling keys&lt;/li&gt;&lt;li&gt;Access log with advanced filters&lt;/li&gt;&lt;li&gt;Notifications and events&lt;/li&gt;&lt;/ul&gt;&lt;/div&gt;&lt;/div&gt;" style="text;html=1;strokeColor=none;fillColor=none;spacing=5;spacingTop=-20;whiteSpace=wrap;overflow=hidden;rounded=0;" vertex="1" parent="1">
          <mxGeometry x="179" y="1010" width="261" height="150" as="geometry" />
        </mxCell>
        <mxCell id="LPtJNR68yc8nHozL9RRt-14" value="&lt;h1&gt;Boxbosses Customer&lt;/h1&gt;&lt;div&gt;&lt;div&gt;&lt;ul&gt;&lt;li&gt;List of centers where you have rented storage rooms&lt;/li&gt;&lt;li&gt;Opening of main doors of the center through BLE&lt;/li&gt;&lt;li&gt;Opening of storage rooms rented through BLE&lt;/li&gt;&lt;li&gt;Share keys with your contacts&lt;/li&gt;&lt;li&gt;Record of openings of your storage rooms&lt;/li&gt;&lt;/ul&gt;&lt;/div&gt;&lt;/div&gt;" style="text;html=1;strokeColor=none;fillColor=none;spacing=5;spacingTop=-20;whiteSpace=wrap;overflow=hidden;rounded=0;" vertex="1" parent="1">
          <mxGeometry x="599" y="1010" width="351" height="190" as="geometry" />
        </mxCell>
        <mxCell id="LPtJNR68yc8nHozL9RRt-15" value="&lt;h1&gt;Atenea&lt;/h1&gt;&lt;div&gt;&lt;ul&gt;&lt;li&gt;CRM&lt;/li&gt;&lt;li&gt;&lt;span style=&quot;font-size: 14px;&quot;&gt;ERP&lt;/span&gt;&lt;/li&gt;&lt;li&gt;&lt;span style=&quot;font-size: 14px;&quot;&gt;Box management&lt;/span&gt;&lt;/li&gt;&lt;li&gt;Billing&amp;nbsp;&lt;/li&gt;&lt;li&gt;Access control and security&amp;nbsp;&lt;/li&gt;&lt;/ul&gt;&lt;/div&gt;" style="text;html=1;strokeColor=none;fillColor=none;spacing=5;spacingTop=-20;whiteSpace=wrap;overflow=hidden;rounded=0;" vertex="1" parent="1">
          <mxGeometry x="165.5" y="228.5" width="204.5" height="201.5" as="geometry" />
        </mxCell>
      </root>
    </mxGraphModel>
  </diagram>
</mxfile>
